<?xml version="1.0" encoding="utf-8" standalone="no"?>
<!DOCTYPE svg PUBLIC "-//W3C//DTD SVG 1.1//EN"
  "http://www.w3.org/Graphics/SVG/1.1/DTD/svg11.dtd">
<!-- Created with matplotlib (https://matplotlib.org/) -->
<svg height="345.6pt" version="1.1" viewBox="0 0 460.8 345.6" width="460.8pt" xmlns="http://www.w3.org/2000/svg" xmlns:xlink="http://www.w3.org/1999/xlink">
 <defs>
  <style type="text/css">
*{stroke-linecap:butt;stroke-linejoin:round;}
  </style>
 </defs>
 <g id="figure_1">
  <g id="patch_1">
   <path d="M 0 345.6 
L 460.8 345.6 
L 460.8 0 
L 0 0 
z
" style="fill:none;"/>
  </g>
  <g id="axes_1">
   <g id="patch_2">
    <path d="M 94.75 314.408 
L 450 314.408 
L 450 10.8 
L 94.75 10.8 
z
" style="fill:none;"/>
   </g>
   <g id="matplotlib.axis_1">
    <g id="xtick_1">
     <g id="line2d_1">
      <defs>
       <path d="M 0 0 
L 0 3.5 
" id="m82b22bc29d" style="stroke:#000000;stroke-width:0.8;"/>
      </defs>
      <g>
       <use style="stroke:#000000;stroke-width:0.8;" x="125.851078" xlink:href="#m82b22bc29d" y="314.408"/>
      </g>
     </g>
     <g id="text_1">
      <!-- $\mathdefault{10^{-2}}$ -->
      <defs>
       <path d="M 12.40625 8.296875 
L 28.515625 8.296875 
L 28.515625 63.921875 
L 10.984375 60.40625 
L 10.984375 69.390625 
L 28.421875 72.90625 
L 38.28125 72.90625 
L 38.28125 8.296875 
L 54.390625 8.296875 
L 54.390625 0 
L 12.40625 0 
z
" id="DejaVuSans-49"/>
       <path d="M 31.78125 66.40625 
Q 24.171875 66.40625 20.328125 58.90625 
Q 16.5 51.421875 16.5 36.375 
Q 16.5 21.390625 20.328125 13.890625 
Q 24.171875 6.390625 31.78125 6.390625 
Q 39.453125 6.390625 43.28125 13.890625 
Q 47.125 21.390625 47.125 36.375 
Q 47.125 51.421875 43.28125 58.90625 
Q 39.453125 66.40625 31.78125 66.40625 
z
M 31.78125 74.21875 
Q 44.046875 74.21875 50.515625 64.515625 
Q 56.984375 54.828125 56.984375 36.375 
Q 56.984375 17.96875 50.515625 8.265625 
Q 44.046875 -1.421875 31.78125 -1.421875 
Q 19.53125 -1.421875 13.0625 8.265625 
Q 6.59375 17.96875 6.59375 36.375 
Q 6.59375 54.828125 13.0625 64.515625 
Q 19.53125 74.21875 31.78125 74.21875 
z
" id="DejaVuSans-48"/>
       <path d="M 10.59375 35.5 
L 73.1875 35.5 
L 73.1875 27.203125 
L 10.59375 27.203125 
z
" id="DejaVuSans-8722"/>
       <path d="M 19.1875 8.296875 
L 53.609375 8.296875 
L 53.609375 0 
L 7.328125 0 
L 7.328125 8.296875 
Q 12.9375 14.109375 22.625 23.890625 
Q 32.328125 33.6875 34.8125 36.53125 
Q 39.546875 41.84375 41.421875 45.53125 
Q 43.3125 49.21875 43.3125 52.78125 
Q 43.3125 58.59375 39.234375 62.25 
Q 35.15625 65.921875 28.609375 65.921875 
Q 23.96875 65.921875 18.8125 64.3125 
Q 13.671875 62.703125 7.8125 59.421875 
L 7.8125 69.390625 
Q 13.765625 71.78125 18.9375 73 
Q 24.125 74.21875 28.421875 74.21875 
Q 39.75 74.21875 46.484375 68.546875 
Q 53.21875 62.890625 53.21875 53.421875 
Q 53.21875 48.921875 51.53125 44.890625 
Q 49.859375 40.875 45.40625 35.40625 
Q 44.1875 33.984375 37.640625 27.21875 
Q 31.109375 20.453125 19.1875 8.296875 
z
" id="DejaVuSans-50"/>
      </defs>
      <g transform="translate(114.101078 329.006438)scale(0.1 -0.1)">
       <use transform="translate(0 0.765625)" xlink:href="#DejaVuSans-49"/>
       <use transform="translate(63.623047 0.765625)" xlink:href="#DejaVuSans-48"/>
       <use transform="translate(128.203125 39.046875)scale(0.7)" xlink:href="#DejaVuSans-8722"/>
       <use transform="translate(186.855469 39.046875)scale(0.7)" xlink:href="#DejaVuSans-50"/>
      </g>
     </g>
    </g>
    <g id="xtick_2">
     <g id="line2d_2">
      <g>
       <use style="stroke:#000000;stroke-width:0.8;" x="187.761765" xlink:href="#m82b22bc29d" y="314.408"/>
      </g>
     </g>
     <g id="text_2">
      <!-- $\mathdefault{10^{0}}$ -->
      <g transform="translate(178.961765 329.006438)scale(0.1 -0.1)">
       <use transform="translate(0 0.765625)" xlink:href="#DejaVuSans-49"/>
       <use transform="translate(63.623047 0.765625)" xlink:href="#DejaVuSans-48"/>
       <use transform="translate(128.203125 39.046875)scale(0.7)" xlink:href="#DejaVuSans-48"/>
      </g>
     </g>
    </g>
    <g id="xtick_3">
     <g id="line2d_3">
      <g>
       <use style="stroke:#000000;stroke-width:0.8;" x="249.672452" xlink:href="#m82b22bc29d" y="314.408"/>
      </g>
     </g>
     <g id="text_3">
      <!-- $\mathdefault{10^{2}}$ -->
      <g transform="translate(240.872452 329.006438)scale(0.1 -0.1)">
       <use transform="translate(0 0.765625)" xlink:href="#DejaVuSans-49"/>
       <use transform="translate(63.623047 0.765625)" xlink:href="#DejaVuSans-48"/>
       <use transform="translate(128.203125 39.046875)scale(0.7)" xlink:href="#DejaVuSans-50"/>
      </g>
     </g>
    </g>
    <g id="xtick_4">
     <g id="line2d_4">
      <g>
       <use style="stroke:#000000;stroke-width:0.8;" x="311.583138" xlink:href="#m82b22bc29d" y="314.408"/>
      </g>
     </g>
     <g id="text_4">
      <!-- $\mathdefault{10^{4}}$ -->
      <defs>
       <path d="M 37.796875 64.3125 
L 12.890625 25.390625 
L 37.796875 25.390625 
z
M 35.203125 72.90625 
L 47.609375 72.90625 
L 47.609375 25.390625 
L 58.015625 25.390625 
L 58.015625 17.1875 
L 47.609375 17.1875 
L 47.609375 0 
L 37.796875 0 
L 37.796875 17.1875 
L 4.890625 17.1875 
L 4.890625 26.703125 
z
" id="DejaVuSans-52"/>
      </defs>
      <g transform="translate(302.783138 329.006438)scale(0.1 -0.1)">
       <use transform="translate(0 0.684375)" xlink:href="#DejaVuSans-49"/>
       <use transform="translate(63.623047 0.684375)" xlink:href="#DejaVuSans-48"/>
       <use transform="translate(128.203125 38.965625)scale(0.7)" xlink:href="#DejaVuSans-52"/>
      </g>
     </g>
    </g>
    <g id="xtick_5">
     <g id="line2d_5">
      <g>
       <use style="stroke:#000000;stroke-width:0.8;" x="373.493825" xlink:href="#m82b22bc29d" y="314.408"/>
      </g>
     </g>
     <g id="text_5">
      <!-- $\mathdefault{10^{6}}$ -->
      <defs>
       <path d="M 33.015625 40.375 
Q 26.375 40.375 22.484375 35.828125 
Q 18.609375 31.296875 18.609375 23.390625 
Q 18.609375 15.53125 22.484375 10.953125 
Q 26.375 6.390625 33.015625 6.390625 
Q 39.65625 6.390625 43.53125 10.953125 
Q 47.40625 15.53125 47.40625 23.390625 
Q 47.40625 31.296875 43.53125 35.828125 
Q 39.65625 40.375 33.015625 40.375 
z
M 52.59375 71.296875 
L 52.59375 62.3125 
Q 48.875 64.0625 45.09375 64.984375 
Q 41.3125 65.921875 37.59375 65.921875 
Q 27.828125 65.921875 22.671875 59.328125 
Q 17.53125 52.734375 16.796875 39.40625 
Q 19.671875 43.65625 24.015625 45.921875 
Q 28.375 48.1875 33.59375 48.1875 
Q 44.578125 48.1875 50.953125 41.515625 
Q 57.328125 34.859375 57.328125 23.390625 
Q 57.328125 12.15625 50.6875 5.359375 
Q 44.046875 -1.421875 33.015625 -1.421875 
Q 20.359375 -1.421875 13.671875 8.265625 
Q 6.984375 17.96875 6.984375 36.375 
Q 6.984375 53.65625 15.1875 63.9375 
Q 23.390625 74.21875 37.203125 74.21875 
Q 40.921875 74.21875 44.703125 73.484375 
Q 48.484375 72.75 52.59375 71.296875 
z
" id="DejaVuSans-54"/>
      </defs>
      <g transform="translate(364.693825 329.006438)scale(0.1 -0.1)">
       <use transform="translate(0 0.765625)" xlink:href="#DejaVuSans-49"/>
       <use transform="translate(63.623047 0.765625)" xlink:href="#DejaVuSans-48"/>
       <use transform="translate(128.203125 39.046875)scale(0.7)" xlink:href="#DejaVuSans-54"/>
      </g>
     </g>
    </g>
    <g id="xtick_6">
     <g id="line2d_6">
      <g>
       <use style="stroke:#000000;stroke-width:0.8;" x="435.404512" xlink:href="#m82b22bc29d" y="314.408"/>
      </g>
     </g>
     <g id="text_6">
      <!-- $\mathdefault{10^{8}}$ -->
      <defs>
       <path d="M 31.78125 34.625 
Q 24.75 34.625 20.71875 30.859375 
Q 16.703125 27.09375 16.703125 20.515625 
Q 16.703125 13.921875 20.71875 10.15625 
Q 24.75 6.390625 31.78125 6.390625 
Q 38.8125 6.390625 42.859375 10.171875 
Q 46.921875 13.96875 46.921875 20.515625 
Q 46.921875 27.09375 42.890625 30.859375 
Q 38.875 34.625 31.78125 34.625 
z
M 21.921875 38.8125 
Q 15.578125 40.375 12.03125 44.71875 
Q 8.5 49.078125 8.5 55.328125 
Q 8.5 64.0625 14.71875 69.140625 
Q 20.953125 74.21875 31.78125 74.21875 
Q 42.671875 74.21875 48.875 69.140625 
Q 55.078125 64.0625 55.078125 55.328125 
Q 55.078125 49.078125 51.53125 44.71875 
Q 48 40.375 41.703125 38.8125 
Q 48.828125 37.15625 52.796875 32.3125 
Q 56.78125 27.484375 56.78125 20.515625 
Q 56.78125 9.90625 50.3125 4.234375 
Q 43.84375 -1.421875 31.78125 -1.421875 
Q 19.734375 -1.421875 13.25 4.234375 
Q 6.78125 9.90625 6.78125 20.515625 
Q 6.78125 27.484375 10.78125 32.3125 
Q 14.796875 37.15625 21.921875 38.8125 
z
M 18.3125 54.390625 
Q 18.3125 48.734375 21.84375 45.5625 
Q 25.390625 42.390625 31.78125 42.390625 
Q 38.140625 42.390625 41.71875 45.5625 
Q 45.3125 48.734375 45.3125 54.390625 
Q 45.3125 60.0625 41.71875 63.234375 
Q 38.140625 66.40625 31.78125 66.40625 
Q 25.390625 66.40625 21.84375 63.234375 
Q 18.3125 60.0625 18.3125 54.390625 
z
" id="DejaVuSans-56"/>
      </defs>
      <g transform="translate(426.604512 329.006438)scale(0.1 -0.1)">
       <use transform="translate(0 0.765625)" xlink:href="#DejaVuSans-49"/>
       <use transform="translate(63.623047 0.765625)" xlink:href="#DejaVuSans-48"/>
       <use transform="translate(128.203125 39.046875)scale(0.7)" xlink:href="#DejaVuSans-56"/>
      </g>
     </g>
    </g>
   </g>
   <g id="matplotlib.axis_2">
    <g id="ytick_1">
     <g id="line2d_7">
      <defs>
       <path d="M 0 0 
L -3.5 0 
" id="m70297be6c2" style="stroke:#000000;stroke-width:0.8;"/>
      </defs>
      <g>
       <use style="stroke:#000000;stroke-width:0.8;" x="94.75" xlink:href="#m70297be6c2" y="300.607636"/>
      </g>
     </g>
     <g id="text_7">
      <!-- -0.9999999999 -->
      <defs>
       <path d="M 4.890625 31.390625 
L 31.203125 31.390625 
L 31.203125 23.390625 
L 4.890625 23.390625 
z
" id="DejaVuSans-45"/>
       <path d="M 10.6875 12.40625 
L 21 12.40625 
L 21 0 
L 10.6875 0 
z
" id="DejaVuSans-46"/>
       <path d="M 10.984375 1.515625 
L 10.984375 10.5 
Q 14.703125 8.734375 18.5 7.8125 
Q 22.3125 6.890625 25.984375 6.890625 
Q 35.75 6.890625 40.890625 13.453125 
Q 46.046875 20.015625 46.78125 33.40625 
Q 43.953125 29.203125 39.59375 26.953125 
Q 35.25 24.703125 29.984375 24.703125 
Q 19.046875 24.703125 12.671875 31.3125 
Q 6.296875 37.9375 6.296875 49.421875 
Q 6.296875 60.640625 12.9375 67.421875 
Q 19.578125 74.21875 30.609375 74.21875 
Q 43.265625 74.21875 49.921875 64.515625 
Q 56.59375 54.828125 56.59375 36.375 
Q 56.59375 19.140625 48.40625 8.859375 
Q 40.234375 -1.421875 26.421875 -1.421875 
Q 22.703125 -1.421875 18.890625 -0.6875 
Q 15.09375 0.046875 10.984375 1.515625 
z
M 30.609375 32.421875 
Q 37.25 32.421875 41.125 36.953125 
Q 45.015625 41.5 45.015625 49.421875 
Q 45.015625 57.28125 41.125 61.84375 
Q 37.25 66.40625 30.609375 66.40625 
Q 23.96875 66.40625 20.09375 61.84375 
Q 16.21875 57.28125 16.21875 49.421875 
Q 16.21875 41.5 20.09375 36.953125 
Q 23.96875 32.421875 30.609375 32.421875 
z
" id="DejaVuSans-57"/>
      </defs>
      <g transform="translate(10.976563 304.406855)scale(0.1 -0.1)">
       <use xlink:href="#DejaVuSans-45"/>
       <use x="36.083984" xlink:href="#DejaVuSans-48"/>
       <use x="99.707031" xlink:href="#DejaVuSans-46"/>
       <use x="131.494141" xlink:href="#DejaVuSans-57"/>
       <use x="195.117188" xlink:href="#DejaVuSans-57"/>
       <use x="258.740234" xlink:href="#DejaVuSans-57"/>
       <use x="322.363281" xlink:href="#DejaVuSans-57"/>
       <use x="385.986328" xlink:href="#DejaVuSans-57"/>
       <use x="449.609375" xlink:href="#DejaVuSans-57"/>
       <use x="513.232422" xlink:href="#DejaVuSans-57"/>
       <use x="576.855469" xlink:href="#DejaVuSans-57"/>
       <use x="640.478516" xlink:href="#DejaVuSans-57"/>
       <use x="704.101562" xlink:href="#DejaVuSans-57"/>
      </g>
     </g>
    </g>
    <g id="ytick_2">
     <g id="line2d_8">
      <g>
       <use style="stroke:#000000;stroke-width:0.8;" x="94.75" xlink:href="#m70297be6c2" y="273.006909"/>
      </g>
     </g>
     <g id="text_8">
      <!-- -0.99999999 -->
      <g transform="translate(23.701563 276.806128)scale(0.1 -0.1)">
       <use xlink:href="#DejaVuSans-45"/>
       <use x="36.083984" xlink:href="#DejaVuSans-48"/>
       <use x="99.707031" xlink:href="#DejaVuSans-46"/>
       <use x="131.494141" xlink:href="#DejaVuSans-57"/>
       <use x="195.117188" xlink:href="#DejaVuSans-57"/>
       <use x="258.740234" xlink:href="#DejaVuSans-57"/>
       <use x="322.363281" xlink:href="#DejaVuSans-57"/>
       <use x="385.986328" xlink:href="#DejaVuSans-57"/>
       <use x="449.609375" xlink:href="#DejaVuSans-57"/>
       <use x="513.232422" xlink:href="#DejaVuSans-57"/>
       <use x="576.855469" xlink:href="#DejaVuSans-57"/>
      </g>
     </g>
    </g>
    <g id="ytick_3">
     <g id="line2d_9">
      <g>
       <use style="stroke:#000000;stroke-width:0.8;" x="94.75" xlink:href="#m70297be6c2" y="245.406182"/>
      </g>
     </g>
     <g id="text_9">
      <!-- -0.999999 -->
      <g transform="translate(36.426563 249.205401)scale(0.1 -0.1)">
       <use xlink:href="#DejaVuSans-45"/>
       <use x="36.083984" xlink:href="#DejaVuSans-48"/>
       <use x="99.707031" xlink:href="#DejaVuSans-46"/>
       <use x="131.494141" xlink:href="#DejaVuSans-57"/>
       <use x="195.117188" xlink:href="#DejaVuSans-57"/>
       <use x="258.740234" xlink:href="#DejaVuSans-57"/>
       <use x="322.363281" xlink:href="#DejaVuSans-57"/>
       <use x="385.986328" xlink:href="#DejaVuSans-57"/>
       <use x="449.609375" xlink:href="#DejaVuSans-57"/>
      </g>
     </g>
    </g>
    <g id="ytick_4">
     <g id="line2d_10">
      <g>
       <use style="stroke:#000000;stroke-width:0.8;" x="94.75" xlink:href="#m70297be6c2" y="217.805455"/>
      </g>
     </g>
     <g id="text_10">
      <!-- -0.9999 -->
      <g transform="translate(49.151563 221.604673)scale(0.1 -0.1)">
       <use xlink:href="#DejaVuSans-45"/>
       <use x="36.083984" xlink:href="#DejaVuSans-48"/>
       <use x="99.707031" xlink:href="#DejaVuSans-46"/>
       <use x="131.494141" xlink:href="#DejaVuSans-57"/>
       <use x="195.117188" xlink:href="#DejaVuSans-57"/>
       <use x="258.740234" xlink:href="#DejaVuSans-57"/>
       <use x="322.363281" xlink:href="#DejaVuSans-57"/>
      </g>
     </g>
    </g>
    <g id="ytick_5">
     <g id="line2d_11">
      <g>
       <use style="stroke:#000000;stroke-width:0.8;" x="94.75" xlink:href="#m70297be6c2" y="190.204727"/>
      </g>
     </g>
     <g id="text_11">
      <!-- -0.99 -->
      <g transform="translate(61.876563 194.003946)scale(0.1 -0.1)">
       <use xlink:href="#DejaVuSans-45"/>
       <use x="36.083984" xlink:href="#DejaVuSans-48"/>
       <use x="99.707031" xlink:href="#DejaVuSans-46"/>
       <use x="131.494141" xlink:href="#DejaVuSans-57"/>
       <use x="195.117188" xlink:href="#DejaVuSans-57"/>
      </g>
     </g>
    </g>
    <g id="ytick_6">
     <g id="line2d_12">
      <g>
       <use style="stroke:#000000;stroke-width:0.8;" x="94.75" xlink:href="#m70297be6c2" y="162.604"/>
      </g>
     </g>
     <g id="text_12">
      <!-- 0.0 -->
      <g transform="translate(71.846875 166.403219)scale(0.1 -0.1)">
       <use xlink:href="#DejaVuSans-48"/>
       <use x="63.623047" xlink:href="#DejaVuSans-46"/>
       <use x="95.410156" xlink:href="#DejaVuSans-48"/>
      </g>
     </g>
    </g>
    <g id="ytick_7">
     <g id="line2d_13">
      <g>
       <use style="stroke:#000000;stroke-width:0.8;" x="94.75" xlink:href="#m70297be6c2" y="135.003273"/>
      </g>
     </g>
     <g id="text_13">
      <!-- 0.99 -->
      <g transform="translate(65.484375 138.802491)scale(0.1 -0.1)">
       <use xlink:href="#DejaVuSans-48"/>
       <use x="63.623047" xlink:href="#DejaVuSans-46"/>
       <use x="95.410156" xlink:href="#DejaVuSans-57"/>
       <use x="159.033203" xlink:href="#DejaVuSans-57"/>
      </g>
     </g>
    </g>
    <g id="ytick_8">
     <g id="line2d_14">
      <g>
       <use style="stroke:#000000;stroke-width:0.8;" x="94.75" xlink:href="#m70297be6c2" y="107.402545"/>
      </g>
     </g>
     <g id="text_14">
      <!-- 0.9999 -->
      <g transform="translate(52.759375 111.201764)scale(0.1 -0.1)">
       <use xlink:href="#DejaVuSans-48"/>
       <use x="63.623047" xlink:href="#DejaVuSans-46"/>
       <use x="95.410156" xlink:href="#DejaVuSans-57"/>
       <use x="159.033203" xlink:href="#DejaVuSans-57"/>
       <use x="222.65625" xlink:href="#DejaVuSans-57"/>
       <use x="286.279297" xlink:href="#DejaVuSans-57"/>
      </g>
     </g>
    </g>
    <g id="ytick_9">
     <g id="line2d_15">
      <g>
       <use style="stroke:#000000;stroke-width:0.8;" x="94.75" xlink:href="#m70297be6c2" y="79.801818"/>
      </g>
     </g>
     <g id="text_15">
      <!-- 0.999999 -->
      <g transform="translate(40.034375 83.601037)scale(0.1 -0.1)">
       <use xlink:href="#DejaVuSans-48"/>
       <use x="63.623047" xlink:href="#DejaVuSans-46"/>
       <use x="95.410156" xlink:href="#DejaVuSans-57"/>
       <use x="159.033203" xlink:href="#DejaVuSans-57"/>
       <use x="222.65625" xlink:href="#DejaVuSans-57"/>
       <use x="286.279297" xlink:href="#DejaVuSans-57"/>
       <use x="349.902344" xlink:href="#DejaVuSans-57"/>
       <use x="413.525391" xlink:href="#DejaVuSans-57"/>
      </g>
     </g>
    </g>
    <g id="ytick_10">
     <g id="line2d_16">
      <g>
       <use style="stroke:#000000;stroke-width:0.8;" x="94.75" xlink:href="#m70297be6c2" y="52.201091"/>
      </g>
     </g>
     <g id="text_16">
      <!-- 0.99999999 -->
      <g transform="translate(27.309375 56.00031)scale(0.1 -0.1)">
       <use xlink:href="#DejaVuSans-48"/>
       <use x="63.623047" xlink:href="#DejaVuSans-46"/>
       <use x="95.410156" xlink:href="#DejaVuSans-57"/>
       <use x="159.033203" xlink:href="#DejaVuSans-57"/>
       <use x="222.65625" xlink:href="#DejaVuSans-57"/>
       <use x="286.279297" xlink:href="#DejaVuSans-57"/>
       <use x="349.902344" xlink:href="#DejaVuSans-57"/>
       <use x="413.525391" xlink:href="#DejaVuSans-57"/>
       <use x="477.148438" xlink:href="#DejaVuSans-57"/>
       <use x="540.771484" xlink:href="#DejaVuSans-57"/>
      </g>
     </g>
    </g>
    <g id="ytick_11">
     <g id="line2d_17">
      <g>
       <use style="stroke:#000000;stroke-width:0.8;" x="94.75" xlink:href="#m70297be6c2" y="24.600364"/>
      </g>
     </g>
     <g id="text_17">
      <!-- 0.9999999999 -->
      <g transform="translate(14.584375 28.399582)scale(0.1 -0.1)">
       <use xlink:href="#DejaVuSans-48"/>
       <use x="63.623047" xlink:href="#DejaVuSans-46"/>
       <use x="95.410156" xlink:href="#DejaVuSans-57"/>
       <use x="159.033203" xlink:href="#DejaVuSans-57"/>
       <use x="222.65625" xlink:href="#DejaVuSans-57"/>
       <use x="286.279297" xlink:href="#DejaVuSans-57"/>
       <use x="349.902344" xlink:href="#DejaVuSans-57"/>
       <use x="413.525391" xlink:href="#DejaVuSans-57"/>
       <use x="477.148438" xlink:href="#DejaVuSans-57"/>
       <use x="540.771484" xlink:href="#DejaVuSans-57"/>
       <use x="604.394531" xlink:href="#DejaVuSans-57"/>
       <use x="668.017578" xlink:href="#DejaVuSans-57"/>
      </g>
     </g>
    </g>
   </g>
   <g id="line2d_18">
    <path clip-path="url(#p5f9d698050)" d="M 114.980353 300.607636 
L 118.075887 297.847564 
L 121.171421 295.087491 
L 124.266956 292.327418 
L 127.36249 289.567345 
L 130.458024 286.807273 
L 133.553559 284.0472 
L 136.649093 281.287127 
L 139.744627 278.527055 
L 142.840162 275.766982 
L 145.935696 273.006909 
L 149.03123 270.246836 
L 152.126765 267.486764 
L 155.222299 264.726691 
L 158.317834 261.966618 
L 161.413368 259.206545 
L 164.508903 256.446473 
L 167.604437 253.6864 
L 170.699972 250.926327 
L 173.795507 248.166255 
L 176.891043 245.406182 
L 179.986579 242.646109 
L 183.082116 239.886036 
L 186.177656 237.125964 
L 189.273198 234.365891 
L 192.368745 231.605818 
L 195.464299 228.845745 
L 198.559864 226.085673 
L 201.655448 223.3256 
L 204.75106 220.565527 
L 207.846719 217.805455 
L 210.94245 215.045382 
L 214.038296 212.285309 
L 217.134324 209.525236 
L 220.230641 206.765164 
L 223.327416 204.005091 
L 226.424918 201.245018 
L 229.523571 198.484945 
L 232.624051 195.724873 
L 235.727431 192.9648 
L 238.83542 190.204727 
L 241.95074 187.444655 
L 245.077752 184.684582 
L 248.22348 181.924509 
L 251.399341 179.164436 
L 254.624185 176.404364 
L 257.929896 173.644291 
L 261.372614 170.884218 
L 265.057995 168.124145 
L 269.209361 165.364073 
L 274.416313 162.604 
L 279.623264 159.843927 
L 283.774631 157.083855 
L 287.460012 154.323782 
L 290.90273 151.563709 
L 294.208441 148.803636 
L 297.433285 146.043564 
L 300.609146 143.283491 
L 303.754874 140.523418 
L 306.881886 137.763345 
L 309.997206 135.003273 
L 313.105195 132.2432 
L 316.208575 129.483127 
L 319.309055 126.723055 
L 322.407708 123.962982 
L 325.50521 121.202909 
L 328.601985 118.442836 
L 331.698302 115.682764 
L 334.79433 112.922691 
L 337.890176 110.162618 
L 340.985907 107.402545 
L 344.081565 104.642473 
L 347.177178 101.8824 
L 350.272762 99.122327 
L 353.368327 96.362255 
L 356.463881 93.602182 
L 359.559428 90.842109 
L 362.65497 88.082036 
L 365.750509 85.321964 
L 368.846047 82.561891 
L 371.941583 79.801818 
L 375.037119 77.041745 
L 378.132654 74.281673 
L 381.228189 71.5216 
L 384.323723 68.761527 
L 387.419258 66.001455 
L 390.514792 63.241382 
L 393.610327 60.481309 
L 396.705861 57.721236 
L 399.801395 54.961164 
L 402.89693 52.201091 
L 405.992464 49.441018 
L 409.087999 46.680945 
L 412.183533 43.920873 
L 415.279067 41.1608 
L 418.374602 38.400727 
L 421.470135 35.640655 
L 424.56567 32.880582 
L 427.661205 30.120509 
L 430.756738 27.360436 
L 433.852273 24.600364 
" style="fill:none;stroke:#ff0000;stroke-linecap:square;stroke-width:1.5;"/>
   </g>
   <g id="line2d_19">
    <path clip-path="url(#p5f9d698050)" d="M 112.6567 300.607636 
L 115.752235 297.847564 
L 118.847768 295.087491 
L 121.943303 292.327418 
L 125.038838 289.567345 
L 128.134371 286.807273 
L 131.229906 284.0472 
L 134.32544 281.287127 
L 137.420974 278.527055 
L 140.516509 275.766982 
L 143.612043 273.006909 
L 146.707577 270.246836 
L 149.803112 267.486764 
L 152.898646 264.726691 
L 155.994181 261.966618 
L 159.089715 259.206545 
L 162.18525 256.446473 
L 165.280784 253.6864 
L 168.376319 250.926327 
L 171.471854 248.166255 
L 174.56739 245.406182 
L 177.662926 242.646109 
L 180.758464 239.886036 
L 183.854003 237.125964 
L 186.949545 234.365891 
L 190.045092 231.605818 
L 193.140646 228.845745 
L 196.236211 226.085673 
L 199.331795 223.3256 
L 202.427407 220.565527 
L 205.523066 217.805455 
L 208.618797 215.045382 
L 211.714643 212.285309 
L 214.810671 209.525236 
L 217.906988 206.765164 
L 221.003763 204.005091 
L 224.101265 201.245018 
L 227.199918 198.484945 
L 230.300398 195.724873 
L 233.403778 192.9648 
L 236.511767 190.204727 
L 239.627087 187.444655 
L 242.754099 184.684582 
L 245.899827 181.924509 
L 249.075688 179.164436 
L 252.300532 176.404364 
L 255.606243 173.644291 
L 259.048961 170.884218 
L 262.734342 168.124145 
L 266.885708 165.364073 
L 272.09266 162.604 
L 277.299612 159.843927 
L 281.450978 157.083855 
L 285.136359 154.323782 
L 288.579077 151.563709 
L 291.884788 148.803636 
L 295.109632 146.043564 
L 298.285493 143.283491 
L 301.431221 140.523418 
L 304.558233 137.763345 
L 307.673553 135.003273 
L 310.781542 132.2432 
L 313.884922 129.483127 
L 316.985402 126.723055 
L 320.084055 123.962982 
L 323.181557 121.202909 
L 326.278332 118.442836 
L 329.374649 115.682764 
L 332.470677 112.922691 
L 335.566523 110.162618 
L 338.662254 107.402545 
L 341.757912 104.642473 
L 344.853525 101.8824 
L 347.949109 99.122327 
L 351.044674 96.362255 
L 354.140228 93.602182 
L 357.235775 90.842109 
L 360.331317 88.082036 
L 363.426856 85.321964 
L 366.522394 82.561891 
L 369.61793 79.801818 
L 372.713466 77.041745 
L 375.809001 74.281673 
L 378.904536 71.5216 
L 382.00007 68.761527 
L 385.095605 66.001455 
L 388.191139 63.241382 
L 391.286674 60.481309 
L 394.382208 57.721236 
L 397.477743 54.961164 
L 400.573277 52.201091 
L 403.668811 49.441018 
L 406.764346 46.680945 
L 409.85988 43.920873 
L 412.955414 41.1608 
L 416.050949 38.400727 
L 419.146482 35.640655 
L 422.242017 32.880582 
L 425.337552 30.120509 
L 428.433085 27.360436 
L 431.52862 24.600364 
" style="fill:none;stroke:#008000;stroke-linecap:square;stroke-width:1.5;"/>
   </g>
   <g id="line2d_20">
    <path clip-path="url(#p5f9d698050)" d="M 110.897727 300.607636 
L 113.993262 297.847564 
L 117.088795 295.087491 
L 120.18433 292.327418 
L 123.279865 289.567345 
L 126.375398 286.807273 
L 129.470933 284.0472 
L 132.566467 281.287127 
L 135.662001 278.527055 
L 138.757536 275.766982 
L 141.85307 273.006909 
L 144.948605 270.246836 
L 148.044139 267.486764 
L 151.139673 264.726691 
L 154.235208 261.966618 
L 157.330742 259.206545 
L 160.426277 256.446473 
L 163.521811 253.6864 
L 166.617346 250.926327 
L 169.712881 248.166255 
L 172.808417 245.406182 
L 175.903953 242.646109 
L 178.999491 239.886036 
L 182.09503 237.125964 
L 185.190572 234.365891 
L 188.286119 231.605818 
L 191.381673 228.845745 
L 194.477238 226.085673 
L 197.572822 223.3256 
L 200.668435 220.565527 
L 203.764093 217.805455 
L 206.859824 215.045382 
L 209.95567 212.285309 
L 213.051698 209.525236 
L 216.148015 206.765164 
L 219.24479 204.005091 
L 222.342292 201.245018 
L 225.440945 198.484945 
L 228.541425 195.724873 
L 231.644805 192.9648 
L 234.752794 190.204727 
L 237.868114 187.444655 
L 240.995126 184.684582 
L 244.140854 181.924509 
L 247.316715 179.164436 
L 250.541559 176.404364 
L 253.84727 173.644291 
L 257.289988 170.884218 
L 260.975369 168.124145 
L 265.126736 165.364073 
L 270.333687 162.604 
L 275.540639 159.843927 
L 279.692005 157.083855 
L 283.377386 154.323782 
L 286.820104 151.563709 
L 290.125815 148.803636 
L 293.350659 146.043564 
L 296.52652 143.283491 
L 299.672248 140.523418 
L 302.79926 137.763345 
L 305.91458 135.003273 
L 309.022569 132.2432 
L 312.125949 129.483127 
L 315.226429 126.723055 
L 318.325082 123.962982 
L 321.422584 121.202909 
L 324.519359 118.442836 
L 327.615676 115.682764 
L 330.711704 112.922691 
L 333.80755 110.162618 
L 336.903281 107.402545 
L 339.99894 104.642473 
L 343.094552 101.8824 
L 346.190136 99.122327 
L 349.285701 96.362255 
L 352.381255 93.602182 
L 355.476802 90.842109 
L 358.572344 88.082036 
L 361.667884 85.321964 
L 364.763421 82.561891 
L 367.858957 79.801818 
L 370.954493 77.041745 
L 374.050028 74.281673 
L 377.145563 71.5216 
L 380.241097 68.761527 
L 383.336632 66.001455 
L 386.432166 63.241382 
L 389.527701 60.481309 
L 392.623235 57.721236 
L 395.71877 54.961164 
L 398.814304 52.201091 
L 401.909838 49.441018 
L 405.005373 46.680945 
L 408.100907 43.920873 
L 411.196441 41.1608 
L 414.291976 38.400727 
L 417.38751 35.640655 
L 420.483044 32.880582 
L 423.578579 30.120509 
L 426.674113 27.360436 
L 429.769647 24.600364 
" style="fill:none;stroke:#0000ff;stroke-linecap:square;stroke-width:1.5;"/>
   </g>
   <g id="patch_3">
    <path d="M 94.75 314.408 
L 94.75 10.8 
" style="fill:none;stroke:#000000;stroke-linecap:square;stroke-linejoin:miter;stroke-width:0.8;"/>
   </g>
   <g id="patch_4">
    <path d="M 450 314.408 
L 450 10.8 
" style="fill:none;stroke:#000000;stroke-linecap:square;stroke-linejoin:miter;stroke-width:0.8;"/>
   </g>
   <g id="patch_5">
    <path d="M 94.75 314.408 
L 450 314.408 
" style="fill:none;stroke:#000000;stroke-linecap:square;stroke-linejoin:miter;stroke-width:0.8;"/>
   </g>
   <g id="patch_6">
    <path d="M 94.75 10.8 
L 450 10.8 
" style="fill:none;stroke:#000000;stroke-linecap:square;stroke-linejoin:miter;stroke-width:0.8;"/>
   </g>
  </g>
 </g>
 <defs>
  <clipPath id="p5f9d698050">
   <rect height="303.608" width="355.25" x="94.75" y="10.8"/>
  </clipPath>
 </defs>
</svg>
