<?xml version="1.0" encoding="utf-8" standalone="no"?>
<!DOCTYPE svg PUBLIC "-//W3C//DTD SVG 1.1//EN"
  "http://www.w3.org/Graphics/SVG/1.1/DTD/svg11.dtd">
<!-- Created with matplotlib (http://matplotlib.org/) -->
<svg height="345.6pt" version="1.1" viewBox="0 0 460.8 345.6" width="460.8pt" xmlns="http://www.w3.org/2000/svg" xmlns:xlink="http://www.w3.org/1999/xlink">
 <defs>
  <style type="text/css">
*{stroke-linecap:butt;stroke-linejoin:round;}
  </style>
 </defs>
 <g id="figure_1">
  <g id="patch_1">
   <path d="M 0 345.6 
L 460.8 345.6 
L 460.8 0 
L 0 0 
z
" style="fill:none;"/>
  </g>
  <g id="axes_1">
   <g id="patch_2">
    <path d="M 59.42 297.16 
L 437.355 297.16 
L 437.355 27.6 
L 59.42 27.6 
z
" style="fill:none;"/>
   </g>
   <g id="matplotlib.axis_1">
    <g id="xtick_1">
     <g id="line2d_1">
      <path clip-path="url(#p2d434759b9)" d="M 59.42 297.16 
L 59.42 27.6 
" style="fill:none;stroke:#b0b0b0;stroke-dasharray:0.8,1.32;stroke-dashoffset:0;stroke-width:0.8;"/>
     </g>
     <g id="line2d_2">
      <defs>
       <path d="M 0 0 
L 0 3.5 
" id="m92d3bd04ff" style="stroke:#000000;stroke-width:0.8;"/>
      </defs>
      <g>
       <use style="stroke:#000000;stroke-width:0.8;" x="59.42" xlink:href="#m92d3bd04ff" y="297.16"/>
      </g>
     </g>
     <g id="text_1">
      <!-- −1000 -->
      <defs>
       <path d="M 10.59375 35.5 
L 73.1875 35.5 
L 73.1875 27.203125 
L 10.59375 27.203125 
z
" id="DejaVuSans-2212"/>
       <path d="M 12.40625 8.296875 
L 28.515625 8.296875 
L 28.515625 63.921875 
L 10.984375 60.40625 
L 10.984375 69.390625 
L 28.421875 72.90625 
L 38.28125 72.90625 
L 38.28125 8.296875 
L 54.390625 8.296875 
L 54.390625 0 
L 12.40625 0 
z
" id="DejaVuSans-31"/>
       <path d="M 31.78125 66.40625 
Q 24.171875 66.40625 20.328125 58.90625 
Q 16.5 51.421875 16.5 36.375 
Q 16.5 21.390625 20.328125 13.890625 
Q 24.171875 6.390625 31.78125 6.390625 
Q 39.453125 6.390625 43.28125 13.890625 
Q 47.125 21.390625 47.125 36.375 
Q 47.125 51.421875 43.28125 58.90625 
Q 39.453125 66.40625 31.78125 66.40625 
z
M 31.78125 74.21875 
Q 44.046875 74.21875 50.515625 64.515625 
Q 56.984375 54.828125 56.984375 36.375 
Q 56.984375 17.96875 50.515625 8.265625 
Q 44.046875 -1.421875 31.78125 -1.421875 
Q 19.53125 -1.421875 13.0625 8.265625 
Q 6.59375 17.96875 6.59375 36.375 
Q 6.59375 54.828125 13.0625 64.515625 
Q 19.53125 74.21875 31.78125 74.21875 
z
" id="DejaVuSans-30"/>
      </defs>
      <g transform="translate(42.505156 311.758438)scale(0.1 -0.1)">
       <use xlink:href="#DejaVuSans-2212"/>
       <use x="83.789062" xlink:href="#DejaVuSans-31"/>
       <use x="147.412109" xlink:href="#DejaVuSans-30"/>
       <use x="211.035156" xlink:href="#DejaVuSans-30"/>
       <use x="274.658203" xlink:href="#DejaVuSans-30"/>
      </g>
     </g>
    </g>
    <g id="xtick_2">
     <g id="line2d_3">
      <path clip-path="url(#p2d434759b9)" d="M 106.661875 297.16 
L 106.661875 27.6 
" style="fill:none;stroke:#b0b0b0;stroke-dasharray:0.8,1.32;stroke-dashoffset:0;stroke-width:0.8;"/>
     </g>
     <g id="line2d_4">
      <g>
       <use style="stroke:#000000;stroke-width:0.8;" x="106.661875" xlink:href="#m92d3bd04ff" y="297.16"/>
      </g>
     </g>
     <g id="text_2">
      <!-- −750 -->
      <defs>
       <path d="M 8.203125 72.90625 
L 55.078125 72.90625 
L 55.078125 68.703125 
L 28.609375 0 
L 18.3125 0 
L 43.21875 64.59375 
L 8.203125 64.59375 
z
" id="DejaVuSans-37"/>
       <path d="M 10.796875 72.90625 
L 49.515625 72.90625 
L 49.515625 64.59375 
L 19.828125 64.59375 
L 19.828125 46.734375 
Q 21.96875 47.46875 24.109375 47.828125 
Q 26.265625 48.1875 28.421875 48.1875 
Q 40.625 48.1875 47.75 41.5 
Q 54.890625 34.8125 54.890625 23.390625 
Q 54.890625 11.625 47.5625 5.09375 
Q 40.234375 -1.421875 26.90625 -1.421875 
Q 22.3125 -1.421875 17.546875 -0.640625 
Q 12.796875 0.140625 7.71875 1.703125 
L 7.71875 11.625 
Q 12.109375 9.234375 16.796875 8.0625 
Q 21.484375 6.890625 26.703125 6.890625 
Q 35.15625 6.890625 40.078125 11.328125 
Q 45.015625 15.765625 45.015625 23.390625 
Q 45.015625 31 40.078125 35.4375 
Q 35.15625 39.890625 26.703125 39.890625 
Q 22.75 39.890625 18.8125 39.015625 
Q 14.890625 38.140625 10.796875 36.28125 
z
" id="DejaVuSans-35"/>
      </defs>
      <g transform="translate(92.928281 311.758438)scale(0.1 -0.1)">
       <use xlink:href="#DejaVuSans-2212"/>
       <use x="83.789062" xlink:href="#DejaVuSans-37"/>
       <use x="147.412109" xlink:href="#DejaVuSans-35"/>
       <use x="211.035156" xlink:href="#DejaVuSans-30"/>
      </g>
     </g>
    </g>
    <g id="xtick_3">
     <g id="line2d_5">
      <path clip-path="url(#p2d434759b9)" d="M 153.90375 297.16 
L 153.90375 27.6 
" style="fill:none;stroke:#b0b0b0;stroke-dasharray:0.8,1.32;stroke-dashoffset:0;stroke-width:0.8;"/>
     </g>
     <g id="line2d_6">
      <g>
       <use style="stroke:#000000;stroke-width:0.8;" x="153.90375" xlink:href="#m92d3bd04ff" y="297.16"/>
      </g>
     </g>
     <g id="text_3">
      <!-- −500 -->
      <g transform="translate(140.170156 311.758438)scale(0.1 -0.1)">
       <use xlink:href="#DejaVuSans-2212"/>
       <use x="83.789062" xlink:href="#DejaVuSans-35"/>
       <use x="147.412109" xlink:href="#DejaVuSans-30"/>
       <use x="211.035156" xlink:href="#DejaVuSans-30"/>
      </g>
     </g>
    </g>
    <g id="xtick_4">
     <g id="line2d_7">
      <path clip-path="url(#p2d434759b9)" d="M 201.145625 297.16 
L 201.145625 27.6 
" style="fill:none;stroke:#b0b0b0;stroke-dasharray:0.8,1.32;stroke-dashoffset:0;stroke-width:0.8;"/>
     </g>
     <g id="line2d_8">
      <g>
       <use style="stroke:#000000;stroke-width:0.8;" x="201.145625" xlink:href="#m92d3bd04ff" y="297.16"/>
      </g>
     </g>
     <g id="text_4">
      <!-- −250 -->
      <defs>
       <path d="M 19.1875 8.296875 
L 53.609375 8.296875 
L 53.609375 0 
L 7.328125 0 
L 7.328125 8.296875 
Q 12.9375 14.109375 22.625 23.890625 
Q 32.328125 33.6875 34.8125 36.53125 
Q 39.546875 41.84375 41.421875 45.53125 
Q 43.3125 49.21875 43.3125 52.78125 
Q 43.3125 58.59375 39.234375 62.25 
Q 35.15625 65.921875 28.609375 65.921875 
Q 23.96875 65.921875 18.8125 64.3125 
Q 13.671875 62.703125 7.8125 59.421875 
L 7.8125 69.390625 
Q 13.765625 71.78125 18.9375 73 
Q 24.125 74.21875 28.421875 74.21875 
Q 39.75 74.21875 46.484375 68.546875 
Q 53.21875 62.890625 53.21875 53.421875 
Q 53.21875 48.921875 51.53125 44.890625 
Q 49.859375 40.875 45.40625 35.40625 
Q 44.1875 33.984375 37.640625 27.21875 
Q 31.109375 20.453125 19.1875 8.296875 
z
" id="DejaVuSans-32"/>
      </defs>
      <g transform="translate(187.412031 311.758438)scale(0.1 -0.1)">
       <use xlink:href="#DejaVuSans-2212"/>
       <use x="83.789062" xlink:href="#DejaVuSans-32"/>
       <use x="147.412109" xlink:href="#DejaVuSans-35"/>
       <use x="211.035156" xlink:href="#DejaVuSans-30"/>
      </g>
     </g>
    </g>
    <g id="xtick_5">
     <g id="line2d_9">
      <path clip-path="url(#p2d434759b9)" d="M 248.3875 297.16 
L 248.3875 27.6 
" style="fill:none;stroke:#b0b0b0;stroke-dasharray:0.8,1.32;stroke-dashoffset:0;stroke-width:0.8;"/>
     </g>
     <g id="line2d_10">
      <g>
       <use style="stroke:#000000;stroke-width:0.8;" x="248.3875" xlink:href="#m92d3bd04ff" y="297.16"/>
      </g>
     </g>
     <g id="text_5">
      <!-- 0 -->
      <g transform="translate(245.20625 311.758438)scale(0.1 -0.1)">
       <use xlink:href="#DejaVuSans-30"/>
      </g>
     </g>
    </g>
    <g id="xtick_6">
     <g id="line2d_11">
      <path clip-path="url(#p2d434759b9)" d="M 295.629375 297.16 
L 295.629375 27.6 
" style="fill:none;stroke:#b0b0b0;stroke-dasharray:0.8,1.32;stroke-dashoffset:0;stroke-width:0.8;"/>
     </g>
     <g id="line2d_12">
      <g>
       <use style="stroke:#000000;stroke-width:0.8;" x="295.629375" xlink:href="#m92d3bd04ff" y="297.16"/>
      </g>
     </g>
     <g id="text_6">
      <!-- 250 -->
      <g transform="translate(286.085625 311.758438)scale(0.1 -0.1)">
       <use xlink:href="#DejaVuSans-32"/>
       <use x="63.623047" xlink:href="#DejaVuSans-35"/>
       <use x="127.246094" xlink:href="#DejaVuSans-30"/>
      </g>
     </g>
    </g>
    <g id="xtick_7">
     <g id="line2d_13">
      <path clip-path="url(#p2d434759b9)" d="M 342.87125 297.16 
L 342.87125 27.6 
" style="fill:none;stroke:#b0b0b0;stroke-dasharray:0.8,1.32;stroke-dashoffset:0;stroke-width:0.8;"/>
     </g>
     <g id="line2d_14">
      <g>
       <use style="stroke:#000000;stroke-width:0.8;" x="342.87125" xlink:href="#m92d3bd04ff" y="297.16"/>
      </g>
     </g>
     <g id="text_7">
      <!-- 500 -->
      <g transform="translate(333.3275 311.758438)scale(0.1 -0.1)">
       <use xlink:href="#DejaVuSans-35"/>
       <use x="63.623047" xlink:href="#DejaVuSans-30"/>
       <use x="127.246094" xlink:href="#DejaVuSans-30"/>
      </g>
     </g>
    </g>
    <g id="xtick_8">
     <g id="line2d_15">
      <path clip-path="url(#p2d434759b9)" d="M 390.113125 297.16 
L 390.113125 27.6 
" style="fill:none;stroke:#b0b0b0;stroke-dasharray:0.8,1.32;stroke-dashoffset:0;stroke-width:0.8;"/>
     </g>
     <g id="line2d_16">
      <g>
       <use style="stroke:#000000;stroke-width:0.8;" x="390.113125" xlink:href="#m92d3bd04ff" y="297.16"/>
      </g>
     </g>
     <g id="text_8">
      <!-- 750 -->
      <g transform="translate(380.569375 311.758438)scale(0.1 -0.1)">
       <use xlink:href="#DejaVuSans-37"/>
       <use x="63.623047" xlink:href="#DejaVuSans-35"/>
       <use x="127.246094" xlink:href="#DejaVuSans-30"/>
      </g>
     </g>
    </g>
    <g id="xtick_9">
     <g id="line2d_17">
      <path clip-path="url(#p2d434759b9)" d="M 437.355 297.16 
L 437.355 27.6 
" style="fill:none;stroke:#b0b0b0;stroke-dasharray:0.8,1.32;stroke-dashoffset:0;stroke-width:0.8;"/>
     </g>
     <g id="line2d_18">
      <g>
       <use style="stroke:#000000;stroke-width:0.8;" x="437.355" xlink:href="#m92d3bd04ff" y="297.16"/>
      </g>
     </g>
     <g id="text_9">
      <!-- 1000 -->
      <g transform="translate(424.63 311.758438)scale(0.1 -0.1)">
       <use xlink:href="#DejaVuSans-31"/>
       <use x="63.623047" xlink:href="#DejaVuSans-30"/>
       <use x="127.246094" xlink:href="#DejaVuSans-30"/>
       <use x="190.869141" xlink:href="#DejaVuSans-30"/>
      </g>
     </g>
    </g>
    <g id="text_10">
     <!-- Rating difference ($R_B-R_A$) -->
     <defs>
      <path d="M 44.390625 34.1875 
Q 47.5625 33.109375 50.5625 29.59375 
Q 53.5625 26.078125 56.59375 19.921875 
L 66.609375 0 
L 56 0 
L 46.6875 18.703125 
Q 43.0625 26.03125 39.671875 28.421875 
Q 36.28125 30.8125 30.421875 30.8125 
L 19.671875 30.8125 
L 19.671875 0 
L 9.8125 0 
L 9.8125 72.90625 
L 32.078125 72.90625 
Q 44.578125 72.90625 50.734375 67.671875 
Q 56.890625 62.453125 56.890625 51.90625 
Q 56.890625 45.015625 53.6875 40.46875 
Q 50.484375 35.9375 44.390625 34.1875 
z
M 19.671875 64.796875 
L 19.671875 38.921875 
L 32.078125 38.921875 
Q 39.203125 38.921875 42.84375 42.21875 
Q 46.484375 45.515625 46.484375 51.90625 
Q 46.484375 58.296875 42.84375 61.546875 
Q 39.203125 64.796875 32.078125 64.796875 
z
" id="DejaVuSans-52"/>
      <path d="M 34.28125 27.484375 
Q 23.390625 27.484375 19.1875 25 
Q 14.984375 22.515625 14.984375 16.5 
Q 14.984375 11.71875 18.140625 8.90625 
Q 21.296875 6.109375 26.703125 6.109375 
Q 34.1875 6.109375 38.703125 11.40625 
Q 43.21875 16.703125 43.21875 25.484375 
L 43.21875 27.484375 
z
M 52.203125 31.203125 
L 52.203125 0 
L 43.21875 0 
L 43.21875 8.296875 
Q 40.140625 3.328125 35.546875 0.953125 
Q 30.953125 -1.421875 24.3125 -1.421875 
Q 15.921875 -1.421875 10.953125 3.296875 
Q 6 8.015625 6 15.921875 
Q 6 25.140625 12.171875 29.828125 
Q 18.359375 34.515625 30.609375 34.515625 
L 43.21875 34.515625 
L 43.21875 35.40625 
Q 43.21875 41.609375 39.140625 45 
Q 35.0625 48.390625 27.6875 48.390625 
Q 23 48.390625 18.546875 47.265625 
Q 14.109375 46.140625 10.015625 43.890625 
L 10.015625 52.203125 
Q 14.9375 54.109375 19.578125 55.046875 
Q 24.21875 56 28.609375 56 
Q 40.484375 56 46.34375 49.84375 
Q 52.203125 43.703125 52.203125 31.203125 
z
" id="DejaVuSans-61"/>
      <path d="M 18.3125 70.21875 
L 18.3125 54.6875 
L 36.8125 54.6875 
L 36.8125 47.703125 
L 18.3125 47.703125 
L 18.3125 18.015625 
Q 18.3125 11.328125 20.140625 9.421875 
Q 21.96875 7.515625 27.59375 7.515625 
L 36.8125 7.515625 
L 36.8125 0 
L 27.59375 0 
Q 17.1875 0 13.234375 3.875 
Q 9.28125 7.765625 9.28125 18.015625 
L 9.28125 47.703125 
L 2.6875 47.703125 
L 2.6875 54.6875 
L 9.28125 54.6875 
L 9.28125 70.21875 
z
" id="DejaVuSans-74"/>
      <path d="M 9.421875 54.6875 
L 18.40625 54.6875 
L 18.40625 0 
L 9.421875 0 
z
M 9.421875 75.984375 
L 18.40625 75.984375 
L 18.40625 64.59375 
L 9.421875 64.59375 
z
" id="DejaVuSans-69"/>
      <path d="M 54.890625 33.015625 
L 54.890625 0 
L 45.90625 0 
L 45.90625 32.71875 
Q 45.90625 40.484375 42.875 44.328125 
Q 39.84375 48.1875 33.796875 48.1875 
Q 26.515625 48.1875 22.3125 43.546875 
Q 18.109375 38.921875 18.109375 30.90625 
L 18.109375 0 
L 9.078125 0 
L 9.078125 54.6875 
L 18.109375 54.6875 
L 18.109375 46.1875 
Q 21.34375 51.125 25.703125 53.5625 
Q 30.078125 56 35.796875 56 
Q 45.21875 56 50.046875 50.171875 
Q 54.890625 44.34375 54.890625 33.015625 
z
" id="DejaVuSans-6e"/>
      <path d="M 45.40625 27.984375 
Q 45.40625 37.75 41.375 43.109375 
Q 37.359375 48.484375 30.078125 48.484375 
Q 22.859375 48.484375 18.828125 43.109375 
Q 14.796875 37.75 14.796875 27.984375 
Q 14.796875 18.265625 18.828125 12.890625 
Q 22.859375 7.515625 30.078125 7.515625 
Q 37.359375 7.515625 41.375 12.890625 
Q 45.40625 18.265625 45.40625 27.984375 
z
M 54.390625 6.78125 
Q 54.390625 -7.171875 48.1875 -13.984375 
Q 42 -20.796875 29.203125 -20.796875 
Q 24.46875 -20.796875 20.265625 -20.09375 
Q 16.0625 -19.390625 12.109375 -17.921875 
L 12.109375 -9.1875 
Q 16.0625 -11.328125 19.921875 -12.34375 
Q 23.78125 -13.375 27.78125 -13.375 
Q 36.625 -13.375 41.015625 -8.765625 
Q 45.40625 -4.15625 45.40625 5.171875 
L 45.40625 9.625 
Q 42.625 4.78125 38.28125 2.390625 
Q 33.9375 0 27.875 0 
Q 17.828125 0 11.671875 7.65625 
Q 5.515625 15.328125 5.515625 27.984375 
Q 5.515625 40.671875 11.671875 48.328125 
Q 17.828125 56 27.875 56 
Q 33.9375 56 38.28125 53.609375 
Q 42.625 51.21875 45.40625 46.390625 
L 45.40625 54.6875 
L 54.390625 54.6875 
z
" id="DejaVuSans-67"/>
      <path id="DejaVuSans-20"/>
      <path d="M 45.40625 46.390625 
L 45.40625 75.984375 
L 54.390625 75.984375 
L 54.390625 0 
L 45.40625 0 
L 45.40625 8.203125 
Q 42.578125 3.328125 38.25 0.953125 
Q 33.9375 -1.421875 27.875 -1.421875 
Q 17.96875 -1.421875 11.734375 6.484375 
Q 5.515625 14.40625 5.515625 27.296875 
Q 5.515625 40.1875 11.734375 48.09375 
Q 17.96875 56 27.875 56 
Q 33.9375 56 38.25 53.625 
Q 42.578125 51.265625 45.40625 46.390625 
z
M 14.796875 27.296875 
Q 14.796875 17.390625 18.875 11.75 
Q 22.953125 6.109375 30.078125 6.109375 
Q 37.203125 6.109375 41.296875 11.75 
Q 45.40625 17.390625 45.40625 27.296875 
Q 45.40625 37.203125 41.296875 42.84375 
Q 37.203125 48.484375 30.078125 48.484375 
Q 22.953125 48.484375 18.875 42.84375 
Q 14.796875 37.203125 14.796875 27.296875 
z
" id="DejaVuSans-64"/>
      <path d="M 37.109375 75.984375 
L 37.109375 68.5 
L 28.515625 68.5 
Q 23.6875 68.5 21.796875 66.546875 
Q 19.921875 64.59375 19.921875 59.515625 
L 19.921875 54.6875 
L 34.71875 54.6875 
L 34.71875 47.703125 
L 19.921875 47.703125 
L 19.921875 0 
L 10.890625 0 
L 10.890625 47.703125 
L 2.296875 47.703125 
L 2.296875 54.6875 
L 10.890625 54.6875 
L 10.890625 58.5 
Q 10.890625 67.625 15.140625 71.796875 
Q 19.390625 75.984375 28.609375 75.984375 
z
" id="DejaVuSans-66"/>
      <path d="M 56.203125 29.59375 
L 56.203125 25.203125 
L 14.890625 25.203125 
Q 15.484375 15.921875 20.484375 11.0625 
Q 25.484375 6.203125 34.421875 6.203125 
Q 39.59375 6.203125 44.453125 7.46875 
Q 49.3125 8.734375 54.109375 11.28125 
L 54.109375 2.78125 
Q 49.265625 0.734375 44.1875 -0.34375 
Q 39.109375 -1.421875 33.890625 -1.421875 
Q 20.796875 -1.421875 13.15625 6.1875 
Q 5.515625 13.8125 5.515625 26.8125 
Q 5.515625 40.234375 12.765625 48.109375 
Q 20.015625 56 32.328125 56 
Q 43.359375 56 49.78125 48.890625 
Q 56.203125 41.796875 56.203125 29.59375 
z
M 47.21875 32.234375 
Q 47.125 39.59375 43.09375 43.984375 
Q 39.0625 48.390625 32.421875 48.390625 
Q 24.90625 48.390625 20.390625 44.140625 
Q 15.875 39.890625 15.1875 32.171875 
z
" id="DejaVuSans-65"/>
      <path d="M 41.109375 46.296875 
Q 39.59375 47.171875 37.8125 47.578125 
Q 36.03125 48 33.890625 48 
Q 26.265625 48 22.1875 43.046875 
Q 18.109375 38.09375 18.109375 28.8125 
L 18.109375 0 
L 9.078125 0 
L 9.078125 54.6875 
L 18.109375 54.6875 
L 18.109375 46.1875 
Q 20.953125 51.171875 25.484375 53.578125 
Q 30.03125 56 36.53125 56 
Q 37.453125 56 38.578125 55.875 
Q 39.703125 55.765625 41.0625 55.515625 
z
" id="DejaVuSans-72"/>
      <path d="M 48.78125 52.59375 
L 48.78125 44.1875 
Q 44.96875 46.296875 41.140625 47.34375 
Q 37.3125 48.390625 33.40625 48.390625 
Q 24.65625 48.390625 19.8125 42.84375 
Q 14.984375 37.3125 14.984375 27.296875 
Q 14.984375 17.28125 19.8125 11.734375 
Q 24.65625 6.203125 33.40625 6.203125 
Q 37.3125 6.203125 41.140625 7.25 
Q 44.96875 8.296875 48.78125 10.40625 
L 48.78125 2.09375 
Q 45.015625 0.34375 40.984375 -0.53125 
Q 36.96875 -1.421875 32.421875 -1.421875 
Q 20.0625 -1.421875 12.78125 6.34375 
Q 5.515625 14.109375 5.515625 27.296875 
Q 5.515625 40.671875 12.859375 48.328125 
Q 20.21875 56 33.015625 56 
Q 37.15625 56 41.109375 55.140625 
Q 45.0625 54.296875 48.78125 52.59375 
z
" id="DejaVuSans-63"/>
      <path d="M 31 75.875 
Q 24.46875 64.65625 21.28125 53.65625 
Q 18.109375 42.671875 18.109375 31.390625 
Q 18.109375 20.125 21.3125 9.0625 
Q 24.515625 -2 31 -13.1875 
L 23.1875 -13.1875 
Q 15.875 -1.703125 12.234375 9.375 
Q 8.59375 20.453125 8.59375 31.390625 
Q 8.59375 42.28125 12.203125 53.3125 
Q 15.828125 64.359375 23.1875 75.875 
z
" id="DejaVuSans-28"/>
      <path d="M 25.203125 64.796875 
L 20.21875 38.921875 
L 32.90625 38.921875 
Q 40.375 38.921875 44.984375 43.046875 
Q 49.609375 47.171875 49.609375 53.8125 
Q 49.609375 59.125 46.5 61.953125 
Q 43.40625 64.796875 37.59375 64.796875 
z
M 43.3125 35.015625 
Q 46.4375 34.28125 48.515625 31.390625 
Q 50.59375 28.515625 53.328125 19.921875 
L 59.515625 0 
L 49.125 0 
L 43.40625 18.703125 
Q 41.21875 25.921875 38.328125 28.359375 
Q 35.453125 30.8125 29.5 30.8125 
L 18.609375 30.8125 
L 12.59375 0 
L 2.6875 0 
L 16.890625 72.90625 
L 39.109375 72.90625 
Q 49.21875 72.90625 54.609375 68.328125 
Q 60.015625 63.765625 60.015625 55.171875 
Q 60.015625 47.5625 55.421875 41.984375 
Q 50.828125 36.421875 43.3125 35.015625 
z
" id="DejaVuSans-Oblique-52"/>
      <path d="M 16.890625 72.90625 
L 42.09375 72.90625 
Q 52.34375 72.90625 57.421875 69.09375 
Q 62.5 65.28125 62.5 57.625 
Q 62.5 50.59375 58.125 45.484375 
Q 53.765625 40.375 46.6875 39.3125 
Q 52.734375 37.9375 55.765625 34.078125 
Q 58.796875 30.21875 58.796875 23.78125 
Q 58.796875 12.796875 50.65625 6.390625 
Q 42.53125 0 28.421875 0 
L 2.6875 0 
z
M 19.28125 34.8125 
L 14.109375 8.109375 
L 29.984375 8.109375 
Q 38.921875 8.109375 43.75 12.203125 
Q 48.578125 16.3125 48.578125 23.78125 
Q 48.578125 29.546875 45.375 32.171875 
Q 42.1875 34.8125 35.109375 34.8125 
z
M 25.09375 64.796875 
L 20.796875 42.828125 
L 35.5 42.828125 
Q 43.359375 42.828125 47.78125 46.234375 
Q 52.203125 49.65625 52.203125 55.71875 
Q 52.203125 60.453125 49.21875 62.625 
Q 46.234375 64.796875 39.703125 64.796875 
z
" id="DejaVuSans-Oblique-42"/>
      <path d="M 36.8125 72.90625 
L 48 72.90625 
L 61.53125 0 
L 51.21875 0 
L 48.1875 18.703125 
L 15.375 18.703125 
L 5.078125 0 
L -5.328125 0 
z
M 40.375 63.1875 
L 19.921875 26.90625 
L 46.6875 26.90625 
z
" id="DejaVuSans-Oblique-41"/>
      <path d="M 8.015625 75.875 
L 15.828125 75.875 
Q 23.140625 64.359375 26.78125 53.3125 
Q 30.421875 42.28125 30.421875 31.390625 
Q 30.421875 20.453125 26.78125 9.375 
Q 23.140625 -1.703125 15.828125 -13.1875 
L 8.015625 -13.1875 
Q 14.5 -2 17.703125 9.0625 
Q 20.90625 20.125 20.90625 31.390625 
Q 20.90625 42.671875 17.703125 53.65625 
Q 14.5 64.65625 8.015625 75.875 
z
" id="DejaVuSans-29"/>
     </defs>
     <g transform="translate(152.1955 328.782125)scale(0.144 -0.144)">
      <use transform="translate(0 0.015625)" xlink:href="#DejaVuSans-52"/>
      <use transform="translate(69.482422 0.015625)" xlink:href="#DejaVuSans-61"/>
      <use transform="translate(130.761719 0.015625)" xlink:href="#DejaVuSans-74"/>
      <use transform="translate(169.970703 0.015625)" xlink:href="#DejaVuSans-69"/>
      <use transform="translate(197.753906 0.015625)" xlink:href="#DejaVuSans-6e"/>
      <use transform="translate(261.132812 0.015625)" xlink:href="#DejaVuSans-67"/>
      <use transform="translate(324.609375 0.015625)" xlink:href="#DejaVuSans-20"/>
      <use transform="translate(356.396484 0.015625)" xlink:href="#DejaVuSans-64"/>
      <use transform="translate(419.873047 0.015625)" xlink:href="#DejaVuSans-69"/>
      <use transform="translate(447.65625 0.015625)" xlink:href="#DejaVuSans-66"/>
      <use transform="translate(482.861328 0.015625)" xlink:href="#DejaVuSans-66"/>
      <use transform="translate(518.066406 0.015625)" xlink:href="#DejaVuSans-65"/>
      <use transform="translate(579.589844 0.015625)" xlink:href="#DejaVuSans-72"/>
      <use transform="translate(620.703125 0.015625)" xlink:href="#DejaVuSans-65"/>
      <use transform="translate(682.226562 0.015625)" xlink:href="#DejaVuSans-6e"/>
      <use transform="translate(745.605469 0.015625)" xlink:href="#DejaVuSans-63"/>
      <use transform="translate(800.585938 0.015625)" xlink:href="#DejaVuSans-65"/>
      <use transform="translate(862.109375 0.015625)" xlink:href="#DejaVuSans-20"/>
      <use transform="translate(893.896484 0.015625)" xlink:href="#DejaVuSans-28"/>
      <use transform="translate(932.910156 0.015625)" xlink:href="#DejaVuSans-Oblique-52"/>
      <use transform="translate(1002.392578 -16.390625)scale(0.7)" xlink:href="#DejaVuSans-Oblique-42"/>
      <use transform="translate(1072.631836 0.015625)" xlink:href="#DejaVuSans-2212"/>
      <use transform="translate(1175.90332 0.015625)" xlink:href="#DejaVuSans-Oblique-52"/>
      <use transform="translate(1245.385742 -16.390625)scale(0.7)" xlink:href="#DejaVuSans-Oblique-41"/>
      <use transform="translate(1296.005859 0.015625)" xlink:href="#DejaVuSans-29"/>
     </g>
    </g>
   </g>
   <g id="matplotlib.axis_2">
    <g id="ytick_1">
     <g id="line2d_19">
      <path clip-path="url(#p2d434759b9)" d="M 59.42 297.16 
L 437.355 297.16 
" style="fill:none;stroke:#b0b0b0;stroke-dasharray:0.8,1.32;stroke-dashoffset:0;stroke-width:0.8;"/>
     </g>
     <g id="line2d_20">
      <defs>
       <path d="M 0 0 
L -3.5 0 
" id="m1b1b800593" style="stroke:#000000;stroke-width:0.8;"/>
      </defs>
      <g>
       <use style="stroke:#000000;stroke-width:0.8;" x="59.42" xlink:href="#m1b1b800593" y="297.16"/>
      </g>
     </g>
     <g id="text_11">
      <!-- −20 -->
      <g transform="translate(31.315313 300.959219)scale(0.1 -0.1)">
       <use xlink:href="#DejaVuSans-2212"/>
       <use x="83.789062" xlink:href="#DejaVuSans-32"/>
       <use x="147.412109" xlink:href="#DejaVuSans-30"/>
      </g>
     </g>
    </g>
    <g id="ytick_2">
     <g id="line2d_21">
      <path clip-path="url(#p2d434759b9)" d="M 59.42 252.233333 
L 437.355 252.233333 
" style="fill:none;stroke:#b0b0b0;stroke-dasharray:0.8,1.32;stroke-dashoffset:0;stroke-width:0.8;"/>
     </g>
     <g id="line2d_22">
      <g>
       <use style="stroke:#000000;stroke-width:0.8;" x="59.42" xlink:href="#m1b1b800593" y="252.233333"/>
      </g>
     </g>
     <g id="text_12">
      <!-- −10 -->
      <g transform="translate(31.315313 256.032552)scale(0.1 -0.1)">
       <use xlink:href="#DejaVuSans-2212"/>
       <use x="83.789062" xlink:href="#DejaVuSans-31"/>
       <use x="147.412109" xlink:href="#DejaVuSans-30"/>
      </g>
     </g>
    </g>
    <g id="ytick_3">
     <g id="line2d_23">
      <path clip-path="url(#p2d434759b9)" d="M 59.42 207.306667 
L 437.355 207.306667 
" style="fill:none;stroke:#b0b0b0;stroke-dasharray:0.8,1.32;stroke-dashoffset:0;stroke-width:0.8;"/>
     </g>
     <g id="line2d_24">
      <g>
       <use style="stroke:#000000;stroke-width:0.8;" x="59.42" xlink:href="#m1b1b800593" y="207.306667"/>
      </g>
     </g>
     <g id="text_13">
      <!-- 0 -->
      <g transform="translate(46.0575 211.105885)scale(0.1 -0.1)">
       <use xlink:href="#DejaVuSans-30"/>
      </g>
     </g>
    </g>
    <g id="ytick_4">
     <g id="line2d_25">
      <path clip-path="url(#p2d434759b9)" d="M 59.42 162.38 
L 437.355 162.38 
" style="fill:none;stroke:#b0b0b0;stroke-dasharray:0.8,1.32;stroke-dashoffset:0;stroke-width:0.8;"/>
     </g>
     <g id="line2d_26">
      <g>
       <use style="stroke:#000000;stroke-width:0.8;" x="59.42" xlink:href="#m1b1b800593" y="162.38"/>
      </g>
     </g>
     <g id="text_14">
      <!-- 10 -->
      <g transform="translate(39.695 166.179219)scale(0.1 -0.1)">
       <use xlink:href="#DejaVuSans-31"/>
       <use x="63.623047" xlink:href="#DejaVuSans-30"/>
      </g>
     </g>
    </g>
    <g id="ytick_5">
     <g id="line2d_27">
      <path clip-path="url(#p2d434759b9)" d="M 59.42 117.453333 
L 437.355 117.453333 
" style="fill:none;stroke:#b0b0b0;stroke-dasharray:0.8,1.32;stroke-dashoffset:0;stroke-width:0.8;"/>
     </g>
     <g id="line2d_28">
      <g>
       <use style="stroke:#000000;stroke-width:0.8;" x="59.42" xlink:href="#m1b1b800593" y="117.453333"/>
      </g>
     </g>
     <g id="text_15">
      <!-- 20 -->
      <g transform="translate(39.695 121.252552)scale(0.1 -0.1)">
       <use xlink:href="#DejaVuSans-32"/>
       <use x="63.623047" xlink:href="#DejaVuSans-30"/>
      </g>
     </g>
    </g>
    <g id="ytick_6">
     <g id="line2d_29">
      <path clip-path="url(#p2d434759b9)" d="M 59.42 72.526667 
L 437.355 72.526667 
" style="fill:none;stroke:#b0b0b0;stroke-dasharray:0.8,1.32;stroke-dashoffset:0;stroke-width:0.8;"/>
     </g>
     <g id="line2d_30">
      <g>
       <use style="stroke:#000000;stroke-width:0.8;" x="59.42" xlink:href="#m1b1b800593" y="72.526667"/>
      </g>
     </g>
     <g id="text_16">
      <!-- 30 -->
      <defs>
       <path d="M 40.578125 39.3125 
Q 47.65625 37.796875 51.625 33 
Q 55.609375 28.21875 55.609375 21.1875 
Q 55.609375 10.40625 48.1875 4.484375 
Q 40.765625 -1.421875 27.09375 -1.421875 
Q 22.515625 -1.421875 17.65625 -0.515625 
Q 12.796875 0.390625 7.625 2.203125 
L 7.625 11.71875 
Q 11.71875 9.328125 16.59375 8.109375 
Q 21.484375 6.890625 26.8125 6.890625 
Q 36.078125 6.890625 40.9375 10.546875 
Q 45.796875 14.203125 45.796875 21.1875 
Q 45.796875 27.640625 41.28125 31.265625 
Q 36.765625 34.90625 28.71875 34.90625 
L 20.21875 34.90625 
L 20.21875 43.015625 
L 29.109375 43.015625 
Q 36.375 43.015625 40.234375 45.921875 
Q 44.09375 48.828125 44.09375 54.296875 
Q 44.09375 59.90625 40.109375 62.90625 
Q 36.140625 65.921875 28.71875 65.921875 
Q 24.65625 65.921875 20.015625 65.03125 
Q 15.375 64.15625 9.8125 62.3125 
L 9.8125 71.09375 
Q 15.4375 72.65625 20.34375 73.4375 
Q 25.25 74.21875 29.59375 74.21875 
Q 40.828125 74.21875 47.359375 69.109375 
Q 53.90625 64.015625 53.90625 55.328125 
Q 53.90625 49.265625 50.4375 45.09375 
Q 46.96875 40.921875 40.578125 39.3125 
z
" id="DejaVuSans-33"/>
      </defs>
      <g transform="translate(39.695 76.325885)scale(0.1 -0.1)">
       <use xlink:href="#DejaVuSans-33"/>
       <use x="63.623047" xlink:href="#DejaVuSans-30"/>
      </g>
     </g>
    </g>
    <g id="ytick_7">
     <g id="line2d_31">
      <path clip-path="url(#p2d434759b9)" d="M 59.42 27.6 
L 437.355 27.6 
" style="fill:none;stroke:#b0b0b0;stroke-dasharray:0.8,1.32;stroke-dashoffset:0;stroke-width:0.8;"/>
     </g>
     <g id="line2d_32">
      <g>
       <use style="stroke:#000000;stroke-width:0.8;" x="59.42" xlink:href="#m1b1b800593" y="27.6"/>
      </g>
     </g>
     <g id="text_17">
      <!-- 40 -->
      <defs>
       <path d="M 37.796875 64.3125 
L 12.890625 25.390625 
L 37.796875 25.390625 
z
M 35.203125 72.90625 
L 47.609375 72.90625 
L 47.609375 25.390625 
L 58.015625 25.390625 
L 58.015625 17.1875 
L 47.609375 17.1875 
L 47.609375 0 
L 37.796875 0 
L 37.796875 17.1875 
L 4.890625 17.1875 
L 4.890625 26.703125 
z
" id="DejaVuSans-34"/>
      </defs>
      <g transform="translate(39.695 31.399219)scale(0.1 -0.1)">
       <use xlink:href="#DejaVuSans-34"/>
       <use x="63.623047" xlink:href="#DejaVuSans-30"/>
      </g>
     </g>
    </g>
    <g id="text_18">
     <!-- Rating change ($\Delta R_A$) -->
     <defs>
      <path d="M 54.890625 33.015625 
L 54.890625 0 
L 45.90625 0 
L 45.90625 32.71875 
Q 45.90625 40.484375 42.875 44.328125 
Q 39.84375 48.1875 33.796875 48.1875 
Q 26.515625 48.1875 22.3125 43.546875 
Q 18.109375 38.921875 18.109375 30.90625 
L 18.109375 0 
L 9.078125 0 
L 9.078125 75.984375 
L 18.109375 75.984375 
L 18.109375 46.1875 
Q 21.34375 51.125 25.703125 53.5625 
Q 30.078125 56 35.796875 56 
Q 45.21875 56 50.046875 50.171875 
Q 54.890625 44.34375 54.890625 33.015625 
z
" id="DejaVuSans-68"/>
      <path d="M 34.1875 63.1875 
L 14.15625 8.203125 
L 54.25 8.203125 
z
M 0.78125 0 
L 28.609375 72.90625 
L 39.796875 72.90625 
L 67.578125 0 
z
" id="DejaVuSans-394"/>
     </defs>
     <g transform="translate(24.291313 236.036)rotate(-90)scale(0.144 -0.144)">
      <use transform="translate(0 0.015625)" xlink:href="#DejaVuSans-52"/>
      <use transform="translate(69.482422 0.015625)" xlink:href="#DejaVuSans-61"/>
      <use transform="translate(130.761719 0.015625)" xlink:href="#DejaVuSans-74"/>
      <use transform="translate(169.970703 0.015625)" xlink:href="#DejaVuSans-69"/>
      <use transform="translate(197.753906 0.015625)" xlink:href="#DejaVuSans-6e"/>
      <use transform="translate(261.132812 0.015625)" xlink:href="#DejaVuSans-67"/>
      <use transform="translate(324.609375 0.015625)" xlink:href="#DejaVuSans-20"/>
      <use transform="translate(356.396484 0.015625)" xlink:href="#DejaVuSans-63"/>
      <use transform="translate(411.376953 0.015625)" xlink:href="#DejaVuSans-68"/>
      <use transform="translate(474.755859 0.015625)" xlink:href="#DejaVuSans-61"/>
      <use transform="translate(536.035156 0.015625)" xlink:href="#DejaVuSans-6e"/>
      <use transform="translate(599.414062 0.015625)" xlink:href="#DejaVuSans-67"/>
      <use transform="translate(662.890625 0.015625)" xlink:href="#DejaVuSans-65"/>
      <use transform="translate(724.414062 0.015625)" xlink:href="#DejaVuSans-20"/>
      <use transform="translate(756.201172 0.015625)" xlink:href="#DejaVuSans-28"/>
      <use transform="translate(795.214844 0.015625)" xlink:href="#DejaVuSans-394"/>
      <use transform="translate(863.623047 0.015625)" xlink:href="#DejaVuSans-Oblique-52"/>
      <use transform="translate(933.105469 -16.390625)scale(0.7)" xlink:href="#DejaVuSans-Oblique-41"/>
      <use transform="translate(983.725586 0.015625)" xlink:href="#DejaVuSans-29"/>
     </g>
    </g>
   </g>
   <g id="line2d_33">
    <path clip-path="url(#p2d434759b9)" d="M 59.42 207.165044 
L 67.132959 207.127684 
L 74.845918 207.080518 
L 82.558878 207.021002 
L 90.271837 206.94595 
L 97.984796 206.85138 
L 105.697755 206.732337 
L 113.410714 206.582674 
L 121.123673 206.394813 
L 128.836633 206.15947 
L 136.549592 205.865377 
L 144.262551 205.499003 
L 151.97551 205.044342 
L 159.688469 204.482816 
L 167.401429 203.793391 
L 175.114388 202.953053 
L 182.827347 201.937772 
L 190.540306 200.724137 
L 198.253265 199.291745 
L 205.966224 197.626348 
L 213.679184 195.723496 
L 221.392143 193.592143 
L 229.105102 191.25738 
L 236.818061 188.761311 
L 244.53102 186.161301 
L 252.24398 183.525366 
L 259.956939 180.925355 
L 267.669898 178.429287 
L 275.382857 176.094524 
L 283.095816 173.963171 
L 290.808776 172.060318 
L 298.521735 170.394921 
L 306.234694 168.96253 
L 313.947653 167.748895 
L 321.660612 166.733614 
L 329.373571 165.893276 
L 337.086531 165.203851 
L 344.79949 164.642324 
L 352.512449 164.187664 
L 360.225408 163.82129 
L 367.938367 163.527197 
L 375.651327 163.291854 
L 383.364286 163.103993 
L 391.077245 162.95433 
L 398.790204 162.835286 
L 406.503163 162.740717 
L 414.216122 162.665665 
L 421.929082 162.606149 
L 429.642041 162.558983 
L 437.355 162.521623 
" style="fill:none;stroke:#1f77b4;stroke-linecap:square;stroke-width:1.5;"/>
   </g>
   <g id="line2d_34">
    <path clip-path="url(#p2d434759b9)" d="M 59.42 207.023421 
L 67.132959 206.948701 
L 74.845918 206.854369 
L 82.558878 206.735338 
L 90.271837 206.585233 
L 97.984796 206.396094 
L 105.697755 206.158007 
L 113.410714 205.858681 
L 121.123673 205.482958 
L 128.836633 205.012273 
L 136.549592 204.424086 
L 144.262551 203.691339 
L 151.97551 202.782018 
L 159.688469 201.658965 
L 167.401429 200.280115 
L 175.114388 198.599439 
L 182.827347 196.568877 
L 190.540306 194.141607 
L 198.253265 191.276824 
L 205.966224 187.94603 
L 213.679184 184.140325 
L 221.392143 179.877619 
L 229.105102 175.208093 
L 236.818061 170.215956 
L 244.53102 165.015935 
L 252.24398 159.744065 
L 259.956939 154.544044 
L 267.669898 149.551907 
L 275.382857 144.882381 
L 283.095816 140.619675 
L 290.808776 136.81397 
L 298.521735 133.483176 
L 306.234694 130.618393 
L 313.947653 128.191123 
L 321.660612 126.160561 
L 329.373571 124.479885 
L 337.086531 123.101035 
L 344.79949 121.977982 
L 352.512449 121.068661 
L 360.225408 120.335914 
L 367.938367 119.747727 
L 375.651327 119.277042 
L 383.364286 118.901319 
L 391.077245 118.601993 
L 398.790204 118.363906 
L 406.503163 118.174767 
L 414.216122 118.024662 
L 421.929082 117.905631 
L 429.642041 117.811299 
L 437.355 117.736579 
" style="fill:none;stroke:#ff7f0e;stroke-linecap:square;stroke-width:1.5;"/>
   </g>
   <g id="line2d_35">
    <path clip-path="url(#p2d434759b9)" d="M 59.42 206.740176 
L 67.132959 206.590735 
L 74.845918 206.402072 
L 82.558878 206.164008 
L 90.271837 205.863799 
L 97.984796 205.485521 
L 105.697755 205.009347 
L 113.410714 204.410695 
L 121.123673 203.65925 
L 128.836633 202.71788 
L 136.549592 201.541506 
L 144.262551 200.076011 
L 151.97551 198.25737 
L 159.688469 196.011263 
L 167.401429 193.253564 
L 175.114388 189.89221 
L 182.827347 185.831088 
L 190.540306 180.976547 
L 198.253265 175.246981 
L 205.966224 168.585393 
L 213.679184 160.973984 
L 221.392143 152.448572 
L 229.105102 143.109519 
L 236.818061 133.125246 
L 244.53102 122.725204 
L 252.24398 112.181463 
L 259.956939 101.781421 
L 267.669898 91.797148 
L 275.382857 82.458095 
L 283.095816 73.932683 
L 290.808776 66.321273 
L 298.521735 59.659686 
L 306.234694 53.93012 
L 313.947653 49.075579 
L 321.660612 45.014456 
L 329.373571 41.653102 
L 337.086531 38.895403 
L 344.79949 36.649297 
L 352.512449 34.830656 
L 360.225408 33.36516 
L 367.938367 32.188786 
L 375.651327 31.247417 
L 383.364286 30.495971 
L 391.077245 29.897319 
L 398.790204 29.421146 
L 406.503163 29.042867 
L 414.216122 28.742658 
L 421.929082 28.504595 
L 429.642041 28.315931 
L 437.355 28.166491 
" style="fill:none;stroke:#2ca02c;stroke-linecap:square;stroke-width:1.5;"/>
   </g>
   <g id="line2d_36">
    <path clip-path="url(#p2d434759b9)" d="M 59.42 229.628377 
L 67.132959 229.591017 
L 74.845918 229.543851 
L 82.558878 229.484335 
L 90.271837 229.409283 
L 97.984796 229.314714 
L 105.697755 229.19567 
L 113.410714 229.046007 
L 121.123673 228.858146 
L 128.836633 228.622803 
L 136.549592 228.32871 
L 144.262551 227.962336 
L 151.97551 227.507676 
L 159.688469 226.946149 
L 167.401429 226.256724 
L 175.114388 225.416386 
L 182.827347 224.401105 
L 190.540306 223.18747 
L 198.253265 221.755079 
L 205.966224 220.089682 
L 213.679184 218.186829 
L 221.392143 216.055476 
L 229.105102 213.720713 
L 236.818061 211.224645 
L 244.53102 208.624634 
L 252.24398 205.988699 
L 259.956939 203.388689 
L 267.669898 200.89262 
L 275.382857 198.557857 
L 283.095816 196.426504 
L 290.808776 194.523652 
L 298.521735 192.858255 
L 306.234694 191.425863 
L 313.947653 190.212228 
L 321.660612 189.196947 
L 329.373571 188.356609 
L 337.086531 187.667184 
L 344.79949 187.105658 
L 352.512449 186.650997 
L 360.225408 186.284623 
L 367.938367 185.99053 
L 375.651327 185.755187 
L 383.364286 185.567326 
L 391.077245 185.417663 
L 398.790204 185.29862 
L 406.503163 185.20405 
L 414.216122 185.128998 
L 421.929082 185.069482 
L 429.642041 185.022316 
L 437.355 184.984956 
" style="fill:none;stroke:#1f77b4;stroke-dasharray:5.55,2.4;stroke-dashoffset:0;stroke-width:1.5;"/>
   </g>
   <g id="line2d_37">
    <path clip-path="url(#p2d434759b9)" d="M 59.42 251.950088 
L 67.132959 251.875368 
L 74.845918 251.781036 
L 82.558878 251.662004 
L 90.271837 251.5119 
L 97.984796 251.322761 
L 105.697755 251.084674 
L 113.410714 250.785348 
L 121.123673 250.409625 
L 128.836633 249.93894 
L 136.549592 249.350753 
L 144.262551 248.618006 
L 151.97551 247.708685 
L 159.688469 246.585632 
L 167.401429 245.206782 
L 175.114388 243.526105 
L 182.827347 241.495544 
L 190.540306 239.068273 
L 198.253265 236.20349 
L 205.966224 232.872697 
L 213.679184 229.066992 
L 221.392143 224.804286 
L 229.105102 220.134759 
L 236.818061 215.142623 
L 244.53102 209.942602 
L 252.24398 204.670731 
L 259.956939 199.47071 
L 267.669898 194.478574 
L 275.382857 189.809047 
L 283.095816 185.546341 
L 290.808776 181.740637 
L 298.521735 178.409843 
L 306.234694 175.54506 
L 313.947653 173.117789 
L 321.660612 171.087228 
L 329.373571 169.406551 
L 337.086531 168.027702 
L 344.79949 166.904649 
L 352.512449 165.995328 
L 360.225408 165.26258 
L 367.938367 164.674393 
L 375.651327 164.203708 
L 383.364286 163.827986 
L 391.077245 163.52866 
L 398.790204 163.290573 
L 406.503163 163.101434 
L 414.216122 162.951329 
L 421.929082 162.832297 
L 429.642041 162.737966 
L 437.355 162.663245 
" style="fill:none;stroke:#ff7f0e;stroke-dasharray:5.55,2.4;stroke-dashoffset:0;stroke-width:1.5;"/>
   </g>
   <g id="line2d_38">
    <path clip-path="url(#p2d434759b9)" d="M 59.42 296.593509 
L 67.132959 296.444069 
L 74.845918 296.255405 
L 82.558878 296.017342 
L 90.271837 295.717133 
L 97.984796 295.338854 
L 105.697755 294.862681 
L 113.410714 294.264029 
L 121.123673 293.512583 
L 128.836633 292.571214 
L 136.549592 291.39484 
L 144.262551 289.929344 
L 151.97551 288.110703 
L 159.688469 285.864597 
L 167.401429 283.106898 
L 175.114388 279.745544 
L 182.827347 275.684421 
L 190.540306 270.82988 
L 198.253265 265.100314 
L 205.966224 258.438727 
L 213.679184 250.827317 
L 221.392143 242.301905 
L 229.105102 232.962852 
L 236.818061 222.978579 
L 244.53102 212.578537 
L 252.24398 202.034796 
L 259.956939 191.634754 
L 267.669898 181.650481 
L 275.382857 172.311428 
L 283.095816 163.786016 
L 290.808776 156.174607 
L 298.521735 149.513019 
L 306.234694 143.783453 
L 313.947653 138.928912 
L 321.660612 134.86779 
L 329.373571 131.506436 
L 337.086531 128.748737 
L 344.79949 126.50263 
L 352.512449 124.683989 
L 360.225408 123.218494 
L 367.938367 122.04212 
L 375.651327 121.10075 
L 383.364286 120.349305 
L 391.077245 119.750653 
L 398.790204 119.274479 
L 406.503163 118.896201 
L 414.216122 118.595992 
L 421.929082 118.357928 
L 429.642041 118.169265 
L 437.355 118.019824 
" style="fill:none;stroke:#2ca02c;stroke-dasharray:5.55,2.4;stroke-dashoffset:0;stroke-width:1.5;"/>
   </g>
   <g id="patch_3">
    <path d="M 59.42 297.16 
L 59.42 27.6 
" style="fill:none;stroke:#000000;stroke-linecap:square;stroke-linejoin:miter;stroke-width:0.8;"/>
   </g>
   <g id="patch_4">
    <path d="M 437.355 297.16 
L 437.355 27.6 
" style="fill:none;stroke:#000000;stroke-linecap:square;stroke-linejoin:miter;stroke-width:0.8;"/>
   </g>
   <g id="patch_5">
    <path d="M 59.42 297.16 
L 437.355 297.16 
" style="fill:none;stroke:#000000;stroke-linecap:square;stroke-linejoin:miter;stroke-width:0.8;"/>
   </g>
   <g id="patch_6">
    <path d="M 59.42 27.6 
L 437.355 27.6 
" style="fill:none;stroke:#000000;stroke-linecap:square;stroke-linejoin:miter;stroke-width:0.8;"/>
   </g>
   <g id="text_19">
    <!-- Change in rating when winning and drawing -->
    <defs>
     <path d="M 64.40625 67.28125 
L 64.40625 56.890625 
Q 59.421875 61.53125 53.78125 63.8125 
Q 48.140625 66.109375 41.796875 66.109375 
Q 29.296875 66.109375 22.65625 58.46875 
Q 16.015625 50.828125 16.015625 36.375 
Q 16.015625 21.96875 22.65625 14.328125 
Q 29.296875 6.6875 41.796875 6.6875 
Q 48.140625 6.6875 53.78125 8.984375 
Q 59.421875 11.28125 64.40625 15.921875 
L 64.40625 5.609375 
Q 59.234375 2.09375 53.4375 0.328125 
Q 47.65625 -1.421875 41.21875 -1.421875 
Q 24.65625 -1.421875 15.125 8.703125 
Q 5.609375 18.84375 5.609375 36.375 
Q 5.609375 53.953125 15.125 64.078125 
Q 24.65625 74.21875 41.21875 74.21875 
Q 47.75 74.21875 53.53125 72.484375 
Q 59.328125 70.75 64.40625 67.28125 
z
" id="DejaVuSans-43"/>
     <path d="M 4.203125 54.6875 
L 13.1875 54.6875 
L 24.421875 12.015625 
L 35.59375 54.6875 
L 46.1875 54.6875 
L 57.421875 12.015625 
L 68.609375 54.6875 
L 77.59375 54.6875 
L 63.28125 0 
L 52.6875 0 
L 40.921875 44.828125 
L 29.109375 0 
L 18.5 0 
z
" id="DejaVuSans-77"/>
    </defs>
    <g transform="translate(89.09425 21.6)scale(0.144 -0.144)">
     <use xlink:href="#DejaVuSans-43"/>
     <use x="69.824219" xlink:href="#DejaVuSans-68"/>
     <use x="133.203125" xlink:href="#DejaVuSans-61"/>
     <use x="194.482422" xlink:href="#DejaVuSans-6e"/>
     <use x="257.861328" xlink:href="#DejaVuSans-67"/>
     <use x="321.337891" xlink:href="#DejaVuSans-65"/>
     <use x="382.861328" xlink:href="#DejaVuSans-20"/>
     <use x="414.648438" xlink:href="#DejaVuSans-69"/>
     <use x="442.431641" xlink:href="#DejaVuSans-6e"/>
     <use x="505.810547" xlink:href="#DejaVuSans-20"/>
     <use x="537.597656" xlink:href="#DejaVuSans-72"/>
     <use x="578.710938" xlink:href="#DejaVuSans-61"/>
     <use x="639.990234" xlink:href="#DejaVuSans-74"/>
     <use x="679.199219" xlink:href="#DejaVuSans-69"/>
     <use x="706.982422" xlink:href="#DejaVuSans-6e"/>
     <use x="770.361328" xlink:href="#DejaVuSans-67"/>
     <use x="833.837891" xlink:href="#DejaVuSans-20"/>
     <use x="865.625" xlink:href="#DejaVuSans-77"/>
     <use x="947.412109" xlink:href="#DejaVuSans-68"/>
     <use x="1010.791016" xlink:href="#DejaVuSans-65"/>
     <use x="1072.314453" xlink:href="#DejaVuSans-6e"/>
     <use x="1135.693359" xlink:href="#DejaVuSans-20"/>
     <use x="1167.480469" xlink:href="#DejaVuSans-77"/>
     <use x="1249.267578" xlink:href="#DejaVuSans-69"/>
     <use x="1277.050781" xlink:href="#DejaVuSans-6e"/>
     <use x="1340.429688" xlink:href="#DejaVuSans-6e"/>
     <use x="1403.808594" xlink:href="#DejaVuSans-69"/>
     <use x="1431.591797" xlink:href="#DejaVuSans-6e"/>
     <use x="1494.970703" xlink:href="#DejaVuSans-67"/>
     <use x="1558.447266" xlink:href="#DejaVuSans-20"/>
     <use x="1590.234375" xlink:href="#DejaVuSans-61"/>
     <use x="1651.513672" xlink:href="#DejaVuSans-6e"/>
     <use x="1714.892578" xlink:href="#DejaVuSans-64"/>
     <use x="1778.369141" xlink:href="#DejaVuSans-20"/>
     <use x="1810.15625" xlink:href="#DejaVuSans-64"/>
     <use x="1873.632812" xlink:href="#DejaVuSans-72"/>
     <use x="1914.746094" xlink:href="#DejaVuSans-61"/>
     <use x="1976.025391" xlink:href="#DejaVuSans-77"/>
     <use x="2057.8125" xlink:href="#DejaVuSans-69"/>
     <use x="2085.595703" xlink:href="#DejaVuSans-6e"/>
     <use x="2148.974609" xlink:href="#DejaVuSans-67"/>
    </g>
   </g>
   <g id="legend_1">
    <g id="patch_7">
     <path d="M 69.5 123.666 
L 133.904 123.666 
Q 136.784 123.666 136.784 120.786 
L 136.784 37.68 
Q 136.784 34.8 133.904 34.8 
L 69.5 34.8 
Q 66.62 34.8 66.62 37.68 
L 66.62 120.786 
Q 66.62 123.666 69.5 123.666 
z
" style="fill:#eeeeee;opacity:0.8;stroke:#cccccc;stroke-linejoin:miter;"/>
    </g>
    <g id="text_20">
     <!-- K-factor -->
     <defs>
      <path d="M 9.8125 72.90625 
L 19.671875 72.90625 
L 19.671875 42.09375 
L 52.390625 72.90625 
L 65.09375 72.90625 
L 28.90625 38.921875 
L 67.671875 0 
L 54.6875 0 
L 19.671875 35.109375 
L 19.671875 0 
L 9.8125 0 
z
" id="DejaVuSans-4b"/>
      <path d="M 4.890625 31.390625 
L 31.203125 31.390625 
L 31.203125 23.390625 
L 4.890625 23.390625 
z
" id="DejaVuSans-2d"/>
      <path d="M 30.609375 48.390625 
Q 23.390625 48.390625 19.1875 42.75 
Q 14.984375 37.109375 14.984375 27.296875 
Q 14.984375 17.484375 19.15625 11.84375 
Q 23.34375 6.203125 30.609375 6.203125 
Q 37.796875 6.203125 41.984375 11.859375 
Q 46.1875 17.53125 46.1875 27.296875 
Q 46.1875 37.015625 41.984375 42.703125 
Q 37.796875 48.390625 30.609375 48.390625 
z
M 30.609375 56 
Q 42.328125 56 49.015625 48.375 
Q 55.71875 40.765625 55.71875 27.296875 
Q 55.71875 13.875 49.015625 6.21875 
Q 42.328125 -1.421875 30.609375 -1.421875 
Q 18.84375 -1.421875 12.171875 6.21875 
Q 5.515625 13.875 5.515625 27.296875 
Q 5.515625 40.765625 12.171875 48.375 
Q 18.84375 56 30.609375 56 
z
" id="DejaVuSans-6f"/>
     </defs>
     <g transform="translate(73.30025 51.50175)scale(0.144 -0.144)">
      <use xlink:href="#DejaVuSans-4b"/>
      <use x="65.419922" xlink:href="#DejaVuSans-2d"/>
      <use x="101.503906" xlink:href="#DejaVuSans-66"/>
      <use x="136.708984" xlink:href="#DejaVuSans-61"/>
      <use x="197.988281" xlink:href="#DejaVuSans-63"/>
      <use x="252.96875" xlink:href="#DejaVuSans-74"/>
      <use x="292.177734" xlink:href="#DejaVuSans-6f"/>
      <use x="353.359375" xlink:href="#DejaVuSans-72"/>
     </g>
    </g>
    <g id="line2d_39">
     <path d="M 72.38 67.59825 
L 101.18 67.59825 
" style="fill:none;stroke:#1f77b4;stroke-linecap:square;stroke-width:1.5;"/>
    </g>
    <g id="line2d_40"/>
    <g id="text_21">
     <!-- 10 -->
     <g transform="translate(112.7 72.63825)scale(0.144 -0.144)">
      <use xlink:href="#DejaVuSans-31"/>
      <use x="63.623047" xlink:href="#DejaVuSans-30"/>
     </g>
    </g>
    <g id="line2d_41">
     <path d="M 72.38 88.73475 
L 101.18 88.73475 
" style="fill:none;stroke:#ff7f0e;stroke-linecap:square;stroke-width:1.5;"/>
    </g>
    <g id="line2d_42"/>
    <g id="text_22">
     <!-- 20 -->
     <g transform="translate(112.7 93.77475)scale(0.144 -0.144)">
      <use xlink:href="#DejaVuSans-32"/>
      <use x="63.623047" xlink:href="#DejaVuSans-30"/>
     </g>
    </g>
    <g id="line2d_43">
     <path d="M 72.38 109.87125 
L 101.18 109.87125 
" style="fill:none;stroke:#2ca02c;stroke-linecap:square;stroke-width:1.5;"/>
    </g>
    <g id="line2d_44"/>
    <g id="text_23">
     <!-- 40 -->
     <g transform="translate(112.7 114.91125)scale(0.144 -0.144)">
      <use xlink:href="#DejaVuSans-34"/>
      <use x="63.623047" xlink:href="#DejaVuSans-30"/>
     </g>
    </g>
   </g>
  </g>
  <g id="axes_2">
   <g id="matplotlib.axis_3"/>
   <g id="line2d_45"/>
   <g id="line2d_46"/>
   <g id="patch_8">
    <path d="M 59.42 297.16 
L 59.42 27.6 
" style="fill:none;stroke:#000000;stroke-linecap:square;stroke-linejoin:miter;stroke-width:0.8;"/>
   </g>
   <g id="patch_9">
    <path d="M 437.355 297.16 
L 437.355 27.6 
" style="fill:none;stroke:#000000;stroke-linecap:square;stroke-linejoin:miter;stroke-width:0.8;"/>
   </g>
   <g id="patch_10">
    <path d="M 59.42 297.16 
L 437.355 297.16 
" style="fill:none;stroke:#000000;stroke-linecap:square;stroke-linejoin:miter;stroke-width:0.8;"/>
   </g>
   <g id="patch_11">
    <path d="M 59.42 27.6 
L 437.355 27.6 
" style="fill:none;stroke:#000000;stroke-linecap:square;stroke-linejoin:miter;stroke-width:0.8;"/>
   </g>
   <g id="legend_2">
    <g id="patch_12">
     <path d="M 314.955 289.96 
L 427.275 289.96 
Q 430.155 289.96 430.155 287.08 
L 430.155 225.1105 
Q 430.155 222.2305 427.275 222.2305 
L 314.955 222.2305 
Q 312.075 222.2305 312.075 225.1105 
L 312.075 287.08 
Q 312.075 289.96 314.955 289.96 
z
" style="fill:#eeeeee;opacity:0.8;stroke:#cccccc;stroke-linejoin:miter;"/>
    </g>
    <g id="text_24">
     <!-- Game result -->
     <defs>
      <path d="M 59.515625 10.40625 
L 59.515625 29.984375 
L 43.40625 29.984375 
L 43.40625 38.09375 
L 69.28125 38.09375 
L 69.28125 6.78125 
Q 63.578125 2.734375 56.6875 0.65625 
Q 49.8125 -1.421875 42 -1.421875 
Q 24.90625 -1.421875 15.25 8.5625 
Q 5.609375 18.5625 5.609375 36.375 
Q 5.609375 54.25 15.25 64.234375 
Q 24.90625 74.21875 42 74.21875 
Q 49.125 74.21875 55.546875 72.453125 
Q 61.96875 70.703125 67.390625 67.28125 
L 67.390625 56.78125 
Q 61.921875 61.421875 55.765625 63.765625 
Q 49.609375 66.109375 42.828125 66.109375 
Q 29.4375 66.109375 22.71875 58.640625 
Q 16.015625 51.171875 16.015625 36.375 
Q 16.015625 21.625 22.71875 14.15625 
Q 29.4375 6.6875 42.828125 6.6875 
Q 48.046875 6.6875 52.140625 7.59375 
Q 56.25 8.5 59.515625 10.40625 
z
" id="DejaVuSans-47"/>
      <path d="M 52 44.1875 
Q 55.375 50.25 60.0625 53.125 
Q 64.75 56 71.09375 56 
Q 79.640625 56 84.28125 50.015625 
Q 88.921875 44.046875 88.921875 33.015625 
L 88.921875 0 
L 79.890625 0 
L 79.890625 32.71875 
Q 79.890625 40.578125 77.09375 44.375 
Q 74.3125 48.1875 68.609375 48.1875 
Q 61.625 48.1875 57.5625 43.546875 
Q 53.515625 38.921875 53.515625 30.90625 
L 53.515625 0 
L 44.484375 0 
L 44.484375 32.71875 
Q 44.484375 40.625 41.703125 44.40625 
Q 38.921875 48.1875 33.109375 48.1875 
Q 26.21875 48.1875 22.15625 43.53125 
Q 18.109375 38.875 18.109375 30.90625 
L 18.109375 0 
L 9.078125 0 
L 9.078125 54.6875 
L 18.109375 54.6875 
L 18.109375 46.1875 
Q 21.1875 51.21875 25.484375 53.609375 
Q 29.78125 56 35.6875 56 
Q 41.65625 56 45.828125 52.96875 
Q 50 49.953125 52 44.1875 
z
" id="DejaVuSans-6d"/>
      <path d="M 44.28125 53.078125 
L 44.28125 44.578125 
Q 40.484375 46.53125 36.375 47.5 
Q 32.28125 48.484375 27.875 48.484375 
Q 21.1875 48.484375 17.84375 46.4375 
Q 14.5 44.390625 14.5 40.28125 
Q 14.5 37.15625 16.890625 35.375 
Q 19.28125 33.59375 26.515625 31.984375 
L 29.59375 31.296875 
Q 39.15625 29.25 43.1875 25.515625 
Q 47.21875 21.78125 47.21875 15.09375 
Q 47.21875 7.46875 41.1875 3.015625 
Q 35.15625 -1.421875 24.609375 -1.421875 
Q 20.21875 -1.421875 15.453125 -0.5625 
Q 10.6875 0.296875 5.421875 2 
L 5.421875 11.28125 
Q 10.40625 8.6875 15.234375 7.390625 
Q 20.0625 6.109375 24.8125 6.109375 
Q 31.15625 6.109375 34.5625 8.28125 
Q 37.984375 10.453125 37.984375 14.40625 
Q 37.984375 18.0625 35.515625 20.015625 
Q 33.0625 21.96875 24.703125 23.78125 
L 21.578125 24.515625 
Q 13.234375 26.265625 9.515625 29.90625 
Q 5.8125 33.546875 5.8125 39.890625 
Q 5.8125 47.609375 11.28125 51.796875 
Q 16.75 56 26.8125 56 
Q 31.78125 56 36.171875 55.265625 
Q 40.578125 54.546875 44.28125 53.078125 
z
" id="DejaVuSans-73"/>
      <path d="M 8.5 21.578125 
L 8.5 54.6875 
L 17.484375 54.6875 
L 17.484375 21.921875 
Q 17.484375 14.15625 20.5 10.265625 
Q 23.53125 6.390625 29.59375 6.390625 
Q 36.859375 6.390625 41.078125 11.03125 
Q 45.3125 15.671875 45.3125 23.6875 
L 45.3125 54.6875 
L 54.296875 54.6875 
L 54.296875 0 
L 45.3125 0 
L 45.3125 8.40625 
Q 42.046875 3.421875 37.71875 1 
Q 33.40625 -1.421875 27.6875 -1.421875 
Q 18.265625 -1.421875 13.375 4.4375 
Q 8.5 10.296875 8.5 21.578125 
z
M 31.109375 56 
z
" id="DejaVuSans-75"/>
      <path d="M 9.421875 75.984375 
L 18.40625 75.984375 
L 18.40625 0 
L 9.421875 0 
z
" id="DejaVuSans-6c"/>
     </defs>
     <g transform="translate(326.867625 238.93225)scale(0.144 -0.144)">
      <use xlink:href="#DejaVuSans-47"/>
      <use x="77.490234" xlink:href="#DejaVuSans-61"/>
      <use x="138.769531" xlink:href="#DejaVuSans-6d"/>
      <use x="236.181641" xlink:href="#DejaVuSans-65"/>
      <use x="297.705078" xlink:href="#DejaVuSans-20"/>
      <use x="329.492188" xlink:href="#DejaVuSans-72"/>
      <use x="370.574219" xlink:href="#DejaVuSans-65"/>
      <use x="432.097656" xlink:href="#DejaVuSans-73"/>
      <use x="484.197266" xlink:href="#DejaVuSans-75"/>
      <use x="547.576172" xlink:href="#DejaVuSans-6c"/>
      <use x="575.359375" xlink:href="#DejaVuSans-74"/>
     </g>
    </g>
    <g id="line2d_47">
     <path d="M 317.835 255.02875 
L 346.635 255.02875 
" style="fill:none;stroke:#000000;stroke-linecap:square;stroke-width:1.5;"/>
    </g>
    <g id="line2d_48"/>
    <g id="text_25">
     <!-- Win for $A$ -->
     <defs>
      <path d="M 3.328125 72.90625 
L 13.28125 72.90625 
L 28.609375 11.28125 
L 43.890625 72.90625 
L 54.984375 72.90625 
L 70.3125 11.28125 
L 85.59375 72.90625 
L 95.609375 72.90625 
L 77.296875 0 
L 64.890625 0 
L 49.515625 63.28125 
L 33.984375 0 
L 21.578125 0 
z
" id="DejaVuSans-57"/>
     </defs>
     <g transform="translate(358.155 260.06875)scale(0.144 -0.144)">
      <use transform="translate(0 0.015625)" xlink:href="#DejaVuSans-57"/>
      <use transform="translate(98.876953 0.015625)" xlink:href="#DejaVuSans-69"/>
      <use transform="translate(126.660156 0.015625)" xlink:href="#DejaVuSans-6e"/>
      <use transform="translate(190.039062 0.015625)" xlink:href="#DejaVuSans-20"/>
      <use transform="translate(221.826172 0.015625)" xlink:href="#DejaVuSans-66"/>
      <use transform="translate(257.03125 0.015625)" xlink:href="#DejaVuSans-6f"/>
      <use transform="translate(318.212891 0.015625)" xlink:href="#DejaVuSans-72"/>
      <use transform="translate(359.326172 0.015625)" xlink:href="#DejaVuSans-20"/>
      <use transform="translate(391.113281 0.015625)" xlink:href="#DejaVuSans-Oblique-41"/>
     </g>
    </g>
    <g id="line2d_49">
     <path d="M 317.835 276.16525 
L 346.635 276.16525 
" style="fill:none;stroke:#000000;stroke-dasharray:5.55,2.4;stroke-dashoffset:0;stroke-width:1.5;"/>
    </g>
    <g id="line2d_50"/>
    <g id="text_26">
     <!-- Draw -->
     <defs>
      <path d="M 19.671875 64.796875 
L 19.671875 8.109375 
L 31.59375 8.109375 
Q 46.6875 8.109375 53.6875 14.9375 
Q 60.6875 21.78125 60.6875 36.53125 
Q 60.6875 51.171875 53.6875 57.984375 
Q 46.6875 64.796875 31.59375 64.796875 
z
M 9.8125 72.90625 
L 30.078125 72.90625 
Q 51.265625 72.90625 61.171875 64.09375 
Q 71.09375 55.28125 71.09375 36.53125 
Q 71.09375 17.671875 61.125 8.828125 
Q 51.171875 0 30.078125 0 
L 9.8125 0 
z
" id="DejaVuSans-44"/>
     </defs>
     <g transform="translate(358.155 281.20525)scale(0.144 -0.144)">
      <use xlink:href="#DejaVuSans-44"/>
      <use x="77.001953" xlink:href="#DejaVuSans-72"/>
      <use x="118.115234" xlink:href="#DejaVuSans-61"/>
      <use x="179.394531" xlink:href="#DejaVuSans-77"/>
     </g>
    </g>
   </g>
  </g>
 </g>
 <defs>
  <clipPath id="p2d434759b9">
   <rect height="269.56" width="377.935" x="59.42" y="27.6"/>
  </clipPath>
 </defs>
</svg>
